<svg width="780" height="141" viewBox="0 0 780 141" fill="none" xmlns="http://www.w3.org/2000/svg">
<path d="M69.0641 0.734863L0 83.6117H62.1577L55.2512 138.863L124.315 55.9861H62.1577L69.0641 0.734863Z" fill="white"/>
<path d="M200.625 138.299V0.967004H227.125L290.568 112.96V0.967004H311.458V138.299H283.992L221.515 28.8202V138.299H200.625ZM385.18 140.62C355.393 140.62 336.437 119.343 336.437 86.8478C336.437 54.3523 355.393 33.0756 384.6 33.0756C412.646 33.0756 431.795 52.9984 431.795 87.6214V92.8439H357.907C358.874 112.96 369.126 123.018 385.373 123.018C397.559 123.018 405.683 117.022 408.971 107.351L430.248 108.705C424.832 127.854 408.004 140.62 385.18 140.62ZM357.907 77.3699H409.938C408.778 59.188 398.72 50.4838 384.6 50.4838C370.093 50.4838 360.228 59.9617 357.907 77.3699ZM439.019 138.299L476.35 85.6872L440.566 35.3967H463.584L488.729 72.3409L513.487 35.3967H536.698L501.302 86.0741L538.246 138.299H515.422L488.922 99.0335L462.423 138.299H439.019ZM608.083 140.62C593.769 140.62 582.357 134.043 576.555 122.825L575.974 138.299H556.825V0.967004H577.328V49.9036C582.551 41.006 593.769 33.0756 608.083 33.0756C634.969 33.0756 651.797 53.9655 651.797 86.8478C651.797 119.73 634.969 140.62 608.083 140.62ZM604.795 122.825C620.462 122.825 630.52 109.092 630.52 86.8478C630.52 64.217 620.655 50.8707 604.988 50.8707C587.58 50.8707 577.328 64.217 577.328 86.8478C577.328 109.092 587.58 122.825 604.795 122.825ZM671.284 20.5029V-0.000120973H692.561V20.5029H671.284ZM671.671 138.299V35.3967H692.174V138.299H671.671ZM753.631 138.299C734.095 138.299 725.004 129.788 725.004 110.446V52.2247H709.336V35.3967H725.004V11.2185H745.507V35.3967H772.78V52.2247H745.507V108.898C745.507 118.569 749.569 121.471 758.079 121.471H772.78V138.299H753.631Z" fill="white"/>
</svg>
