<svg width="23" height="23" viewBox="0 0 23 23" fill="none" xmlns="http://www.w3.org/2000/svg">
<path fill-rule="evenodd" clip-rule="evenodd" d="M20.5083 11.1865C20.5083 16.3351 16.3349 20.5086 11.1863 20.5086C6.03774 20.5086 1.86426 16.3351 1.86426 11.1865C1.86426 6.03798 6.03774 1.8645 11.1863 1.8645C16.3349 1.8645 20.5083 6.03798 20.5083 11.1865ZM14.9431 8.36196C15.074 8.49306 15.1475 8.67076 15.1475 8.85603C15.1475 9.04131 15.074 9.21901 14.9431 9.3501L10.2821 14.0111C10.151 14.142 9.97327 14.2156 9.78799 14.2156C9.60272 14.2156 9.42502 14.142 9.29392 14.0111L7.42952 12.1467C7.36082 12.0827 7.30573 12.0055 7.26752 11.9198C7.2293 11.834 7.20876 11.7414 7.2071 11.6475C7.20544 11.5537 7.22271 11.4604 7.25788 11.3734C7.29304 11.2863 7.34538 11.2072 7.41177 11.1408C7.47816 11.0744 7.55724 11.0221 7.6443 10.9869C7.73135 10.9518 7.8246 10.9345 7.91848 10.9362C8.01235 10.9378 8.10493 10.9584 8.1907 10.9966C8.27646 11.0348 8.35364 11.0899 8.41765 11.1586L9.78799 12.5289L11.8715 10.4454L13.9549 8.36196C14.086 8.23104 14.2637 8.15749 14.449 8.15749C14.6343 8.15749 14.812 8.23104 14.9431 8.36196Z" fill="#36C436"/>
</svg>
