<svg width="20" height="20" viewBox="0 0 20 20" fill="none" xmlns="http://www.w3.org/2000/svg">
<path d="M8.33333 2.50004C8.09722 2.50004 7.89944 2.42004 7.74 2.26004C7.58056 2.10004 7.50056 1.90226 7.5 1.66671C7.49944 1.43115 7.57944 1.23337 7.74 1.07337C7.90056 0.913374 8.09833 0.833374 8.33333 0.833374L11.6667 0.833374C11.9028 0.833374 12.1008 0.913374 12.2608 1.07337C12.4208 1.23337 12.5006 1.43115 12.5 1.66671C12.4994 1.90226 12.4194 2.10032 12.26 2.26087C12.1006 2.42143 11.9028 2.50115 11.6667 2.50004H8.33333ZM10 11.6667C10.2361 11.6667 10.4342 11.5867 10.5942 11.4267C10.7542 11.2667 10.8339 11.0689 10.8333 10.8334V7.50004C10.8333 7.26393 10.7533 7.06615 10.5933 6.90671C10.4333 6.74726 10.2356 6.66726 10 6.66671C9.76444 6.66615 9.56667 6.74615 9.40667 6.90671C9.24667 7.06726 9.16667 7.26504 9.16667 7.50004V10.8334C9.16667 11.0695 9.24667 11.2675 9.40667 11.4275C9.56667 11.5875 9.76444 11.6673 10 11.6667ZM10 18.3334C8.97222 18.3334 8.00333 18.1356 7.09333 17.74C6.18333 17.3445 5.38833 16.8062 4.70833 16.125C4.02833 15.4439 3.49028 14.6487 3.09417 13.7392C2.69806 12.8298 2.5 11.8612 2.5 10.8334C2.5 9.8056 2.69806 8.83671 3.09417 7.92671C3.49028 7.01671 4.02833 6.22171 4.70833 5.54171C5.38833 4.86171 6.18361 4.32365 7.09417 3.92754C8.00472 3.53143 8.97333 3.33337 10 3.33337C10.8611 3.33337 11.6875 3.47226 12.4792 3.75004C13.2708 4.02782 14.0139 4.4306 14.7083 4.95837L15.2917 4.37504C15.4444 4.22226 15.6389 4.14587 15.875 4.14587C16.1111 4.14587 16.3056 4.22226 16.4583 4.37504C16.6111 4.52782 16.6875 4.72226 16.6875 4.95837C16.6875 5.19448 16.6111 5.38893 16.4583 5.54171L15.875 6.12504C16.4028 6.81948 16.8056 7.56254 17.0833 8.35421C17.3611 9.14587 17.5 9.97226 17.5 10.8334C17.5 11.8612 17.3019 12.83 16.9058 13.74C16.5097 14.65 15.9717 15.445 15.2917 16.125C14.6117 16.805 13.8164 17.3434 12.9058 17.74C11.9953 18.1367 11.0267 18.3345 10 18.3334Z" fill="#131313"/>
</svg>
