<svg width="240" height="72" viewBox="0 0 240 72" fill="none" xmlns="http://www.w3.org/2000/svg">
<path d="M56.5425 33.0083C60.739 33.0083 64.141 36.4104 64.1411 40.6069V46.8345H60.3618V40.6069C60.3618 40.1601 60.2851 39.7311 60.144 39.3325L54.5923 44.8843L51.9194 42.2114L57.2729 36.8579C57.0365 36.8121 56.7923 36.7886 56.5425 36.7886H50.3149V33.0083H56.5425ZM78.6294 36.7886H72.4019C72.052 36.7886 71.7131 36.8352 71.3911 36.9233L77.1978 42.731L74.5259 45.4028L68.7183 39.5962C68.6301 39.9181 68.5825 40.257 68.5825 40.6069V46.8345H64.8032V40.6069C64.8033 36.4105 68.2054 33.0083 72.4019 33.0083H78.6294V36.7886ZM64.4253 25.1655C66.6517 25.1656 68.4564 26.9704 68.4565 29.1968C68.4565 31.4233 66.6518 33.2289 64.4253 33.229C62.1987 33.229 60.394 31.4233 60.394 29.1968C60.3942 26.9704 62.1988 25.1655 64.4253 25.1655Z" fill="#131313" fill-opacity="0.32"/>
<path d="M84.6763 47.0524V25.3281H90.8289L97.4255 43.9444H97.9012V25.3281H101.421V47.0524H95.3957L88.6406 28.4044H88.1966V47.0524H84.6763Z" fill="#131313" fill-opacity="0.32"/>
<path d="M115.524 44.1981L116.412 44.103L116.476 46.6719C114.066 47.1581 111.93 47.4013 110.07 47.4013C107.723 47.4013 106.031 46.7564 104.995 45.4667C103.98 44.177 103.473 42.1156 103.473 39.2824C103.473 33.6584 105.767 30.8464 110.355 30.8464C114.795 30.8464 117.015 33.2672 117.015 38.109L116.793 40.5827H106.962C106.983 41.8936 107.268 42.8556 107.818 43.4687C108.368 44.0818 109.393 44.3884 110.894 44.3884C112.395 44.3884 113.939 44.325 115.524 44.1981ZM113.622 37.9187C113.622 36.3541 113.368 35.2652 112.86 34.6521C112.374 34.0178 111.539 33.7007 110.355 33.7007C109.171 33.7007 108.304 34.0284 107.754 34.6838C107.226 35.3392 106.951 36.4175 106.93 37.9187H113.622Z" fill="#131313" fill-opacity="0.32"/>
<path d="M127.285 34.1447H122.908V41.1218C122.908 42.4116 123.003 43.2678 123.193 43.6907C123.384 44.1136 123.87 44.325 124.652 44.325L127.253 44.2298L127.411 46.989C125.995 47.2639 124.917 47.4013 124.177 47.4013C122.379 47.4013 121.143 46.989 120.466 46.1644C119.811 45.3398 119.483 43.7858 119.483 41.5024V34.1447H117.453V31.1952H119.483V26.5966H122.908V31.1952H127.285V34.1447Z" fill="#131313" fill-opacity="0.32"/>
<path d="M127.297 31.1952H130.691L133.196 44.103H133.83L136.843 31.5124H140.395L143.408 44.103H144.042L146.516 31.1952H149.941L146.58 47.0524H141.093L138.619 36.1744L136.146 47.0524H130.659L127.297 31.1952Z" fill="#131313" fill-opacity="0.32"/>
<path d="M152.148 32.9078C153.247 31.5335 155.066 30.8464 157.603 30.8464C160.14 30.8464 161.948 31.5335 163.026 32.9078C164.125 34.2821 164.675 36.3435 164.675 39.0921C164.675 41.8407 164.147 43.9127 163.089 45.3081C162.032 46.7036 160.203 47.4013 157.603 47.4013C155.002 47.4013 153.173 46.7036 152.116 45.3081C151.059 43.9127 150.53 41.8407 150.53 39.0921C150.53 36.3435 151.07 34.2821 152.148 32.9078ZM154.748 43.215C155.235 44.0607 156.186 44.4836 157.603 44.4836C159.019 44.4836 159.971 44.0607 160.457 43.215C160.943 42.3693 161.187 40.9844 161.187 39.0604C161.187 37.1364 160.922 35.7727 160.394 34.9692C159.886 34.1658 158.956 33.7641 157.603 33.7641C156.25 33.7641 155.309 34.1658 154.78 34.9692C154.273 35.7727 154.019 37.1364 154.019 39.0604C154.019 40.9844 154.262 42.3693 154.748 43.215Z" fill="#131313" fill-opacity="0.32"/>
<path d="M166.523 47.0524V31.1952H169.948V33.0981C171.746 31.9352 173.543 31.1847 175.34 30.8464V34.3032C173.522 34.6627 171.968 35.1278 170.678 35.6987L169.98 35.9841V47.0524H166.523Z" fill="#131313" fill-opacity="0.32"/>
<path d="M179.854 47.0524H176.397V24.5986H179.854V37.5698L181.82 37.3795L185.562 31.1952H189.431L184.865 38.6164L189.685 47.0524H185.784L181.915 40.3607L179.854 40.5827V47.0524Z" fill="#131313" fill-opacity="0.32"/>
</svg>
