<svg width="97" height="28" viewBox="0 0 97 28" fill="none" xmlns="http://www.w3.org/2000/svg">
<path d="M13.4311 0.568909L0 16.6862H12.088L10.7449 27.4311L24.176 11.3138H12.088L13.4311 0.568909Z" fill="black"/>
<path d="M39.7814 21V7.74667H42.3387L48.4614 18.5547V7.74667H50.4774V21H47.8267L41.7974 10.4347V21H39.7814ZM57.592 21.224C54.7173 21.224 52.888 19.1707 52.888 16.0347C52.888 12.8987 54.7173 10.8453 57.536 10.8453C60.2427 10.8453 62.0907 12.768 62.0907 16.1093V16.6133H54.96C55.0533 18.5547 56.0427 19.5253 57.6107 19.5253C58.7867 19.5253 59.5707 18.9467 59.888 18.0133L61.9413 18.144C61.4187 19.992 59.7947 21.224 57.592 21.224ZM54.96 15.12H59.9813C59.8693 13.3653 58.8987 12.5253 57.536 12.5253C56.136 12.5253 55.184 13.44 54.96 15.12ZM62.7877 21L66.3904 15.9227L62.9371 11.0693H65.1584L67.5851 14.6347L69.9744 11.0693H72.2144L68.7984 15.96L72.3637 21H70.1611L67.6037 17.2107L65.0464 21H62.7877ZM79.1034 21.224C77.7221 21.224 76.6208 20.5893 76.0608 19.5067L76.0048 21H74.1568V7.74667H76.1354V12.4693C76.6394 11.6107 77.7221 10.8453 79.1034 10.8453C81.6981 10.8453 83.3221 12.8613 83.3221 16.0347C83.3221 19.208 81.6981 21.224 79.1034 21.224ZM78.7861 19.5067C80.2981 19.5067 81.2688 18.1813 81.2688 16.0347C81.2688 13.8507 80.3168 12.5627 78.8048 12.5627C77.1248 12.5627 76.1354 13.8507 76.1354 16.0347C76.1354 18.1813 77.1248 19.5067 78.7861 19.5067ZM85.2028 9.632V7.65333H87.2561V9.632H85.2028ZM85.2401 21V11.0693H87.2188V21H85.2401ZM93.1497 21C91.2643 21 90.387 20.1787 90.387 18.312V12.6933H88.875V11.0693H90.387V8.736H92.3657V11.0693H94.9977V12.6933H92.3657V18.1627C92.3657 19.096 92.7577 19.376 93.579 19.376H94.9977V21H93.1497Z" fill="black"/>
</svg>
