<svg width="240" height="72" viewBox="0 0 240 72" fill="none" xmlns="http://www.w3.org/2000/svg">
<path d="M102.21 43.9119C103.34 44.469 104.693 44.7475 106.268 44.7475C107.924 44.7475 109.348 44.4372 110.542 43.8164C111.736 43.1957 112.675 42.3681 113.359 41.3335C114.044 40.2989 114.465 39.1609 114.625 37.9195H111.21C111.019 39.0813 110.47 39.9886 109.563 40.6411C108.672 41.2778 107.574 41.5961 106.268 41.5961C105.377 41.5961 104.589 41.4449 103.905 41.1425C103.236 40.8401 102.671 40.4183 102.21 39.8772C101.748 39.3201 101.398 38.6755 101.159 37.9433C100.937 37.2112 100.825 36.4154 100.825 35.5559C100.825 34.6646 100.937 33.8529 101.159 33.1207C101.398 32.3886 101.74 31.7519 102.186 31.2108C102.632 30.6696 103.189 30.2558 103.857 29.9693C104.526 29.6669 105.29 29.5157 106.149 29.5157C106.993 29.5157 107.749 29.6589 108.417 29.9454C109.086 30.216 109.635 30.6298 110.065 31.1869C110.51 31.728 110.797 32.3965 110.924 33.1923H114.338C114.195 31.8235 113.773 30.6298 113.073 29.6112C112.372 28.5766 111.433 27.7808 110.255 27.2237C109.094 26.6508 107.725 26.3643 106.149 26.3643C104.637 26.3643 103.324 26.6269 102.21 27.1521C101.112 27.6614 100.204 28.3458 99.4882 29.2053C98.7719 30.0648 98.2387 31.0198 97.8886 32.0702C97.5543 33.1207 97.3872 34.1871 97.3872 35.2694V35.7946C97.3872 36.7655 97.5543 37.7762 97.8886 38.8267C98.2228 39.8772 98.7401 40.848 99.4404 41.7394C100.157 42.6307 101.08 43.3549 102.21 43.9119Z" fill="#131313" fill-opacity="0.32"/>
<path fill-rule="evenodd" clip-rule="evenodd" d="M123.478 42.7182C123.642 42.44 123.777 42.1331 123.884 41.7973V44.2939H126.51V36.2483C126.51 35.0386 126.279 34.0598 125.817 33.3117C125.372 32.5636 124.703 32.0145 123.812 31.6644C122.937 31.3142 121.83 31.1391 120.494 31.1391C120.064 31.1391 119.602 31.1471 119.109 31.163C118.631 31.163 118.162 31.1789 117.7 31.2108C117.239 31.2426 116.825 31.2744 116.459 31.3063V34.1234C116.904 34.0916 117.406 34.0677 117.963 34.0518C118.536 34.02 119.101 33.9961 119.658 33.9802C120.215 33.9643 120.692 33.9563 121.09 33.9563C121.854 33.9563 122.419 34.1393 122.785 34.5054C123.152 34.8715 123.335 35.4286 123.335 36.1766V36.296H120.684C119.539 36.296 118.536 36.4472 117.676 36.7496C116.833 37.052 116.172 37.5056 115.695 38.1105C115.233 38.7153 115.002 39.4952 115.002 40.4501C115.002 41.3255 115.193 42.0736 115.575 42.6943C115.973 43.3151 116.522 43.7926 117.223 44.1268C117.939 44.461 118.767 44.6282 119.706 44.6282C120.613 44.6282 121.377 44.469 121.998 44.1507C122.634 43.8164 123.128 43.3389 123.478 42.7182ZM122.881 41.1664C123.152 40.7526 123.303 40.1955 123.335 39.4952V38.2776H120.637C119.873 38.2776 119.284 38.4686 118.87 38.8506C118.472 39.2166 118.273 39.6941 118.273 40.283C118.273 40.8719 118.472 41.3494 118.87 41.7155C119.284 42.0816 119.873 42.2646 120.637 42.2646C121.098 42.2646 121.52 42.185 121.902 42.0259C122.3 41.8508 122.626 41.5643 122.881 41.1664Z" fill="#131313" fill-opacity="0.32"/>
<path d="M134.625 44.7475C133.494 44.7475 132.516 44.5565 131.688 44.1745C130.876 43.7926 130.192 43.2832 129.635 42.6466C129.094 42.0099 128.688 41.2937 128.417 40.4979C128.147 39.7021 128.011 38.8904 128.011 38.0627V37.6091C128.011 36.7337 128.147 35.8981 128.417 35.1023C128.704 34.2906 129.125 33.5743 129.683 32.9536C130.24 32.3169 130.924 31.8156 131.736 31.4495C132.563 31.0675 133.518 30.8765 134.601 30.8765C135.731 30.8765 136.741 31.0993 137.633 31.545C138.524 31.9747 139.232 32.5796 139.758 33.3595C140.299 34.1393 140.601 35.0466 140.665 36.0811H137.442C137.362 35.4126 137.076 34.8556 136.582 34.4099C136.105 33.9643 135.444 33.7414 134.601 33.7414C133.868 33.7414 133.256 33.9165 132.762 34.2667C132.285 34.6168 131.927 35.1023 131.688 35.723C131.449 36.3278 131.33 37.0281 131.33 37.824C131.33 38.5879 131.441 39.2803 131.664 39.901C131.903 40.5218 132.261 41.0072 132.738 41.3574C133.232 41.7075 133.861 41.8826 134.625 41.8826C135.198 41.8826 135.691 41.7791 136.105 41.5722C136.519 41.3653 136.845 41.0788 137.084 40.7128C137.338 40.3467 137.497 39.9329 137.561 39.4713H140.784C140.72 40.5218 140.41 41.4449 139.853 42.2407C139.312 43.0206 138.588 43.6334 137.68 44.079C136.789 44.5247 135.77 44.7475 134.625 44.7475Z" fill="#131313" fill-opacity="0.32"/>
<path d="M144.923 44.0074C145.703 44.3098 146.689 44.461 147.883 44.461H149.745V41.62H147.716C147.079 41.62 146.586 41.4529 146.236 41.1186C145.902 40.7685 145.735 40.2751 145.735 39.6384L145.746 33.7653H149.745V31.3301H145.751L145.758 27.6773H142.655L142.647 31.3301H140.578V33.7653H142.642L142.631 39.4235C142.631 40.6809 142.822 41.6837 143.204 42.4317C143.586 43.1639 144.159 43.6891 144.923 44.0074Z" fill="#131313" fill-opacity="0.32"/>
<path d="M155.754 44.6998C154.258 44.6998 153.096 44.2064 152.268 43.2196C151.456 42.2328 151.05 40.7685 151.05 38.8267V31.3063H154.369V39.1132C154.369 39.909 154.592 40.5456 155.037 41.0231C155.483 41.4847 156.088 41.7155 156.852 41.7155C157.616 41.7155 158.237 41.4688 158.714 40.9754C159.208 40.482 159.454 39.8135 159.454 38.9699V31.3063H162.773V44.2939H160.147V41.275C160.08 41.5497 160 41.8079 159.908 42.0497C159.574 42.9251 159.072 43.5856 158.404 44.0313C157.735 44.477 156.9 44.6998 155.897 44.6998H155.754Z" fill="#131313" fill-opacity="0.32"/>
<path d="M165.892 43.5777C166.911 44.3258 168.312 44.6998 170.094 44.6998C171.24 44.6998 172.235 44.5247 173.079 44.1745C173.922 43.8244 174.575 43.3389 175.036 42.7182C175.514 42.0816 175.753 41.3335 175.753 40.474C175.753 39.3121 175.315 38.389 174.44 37.7046C173.58 37.0202 172.386 36.5984 170.858 36.4392L169.712 36.3199C169.012 36.2403 168.503 36.0891 168.184 35.8663C167.882 35.6434 167.731 35.3251 167.731 34.9113C167.731 34.4815 167.922 34.1314 168.304 33.8608C168.686 33.5902 169.227 33.4549 169.927 33.4549C170.707 33.4549 171.304 33.6141 171.718 33.9324C172.132 34.2508 172.354 34.6328 172.386 35.0784H175.371C175.323 33.7255 174.806 32.6989 173.819 31.9986C172.832 31.2983 171.543 30.9481 169.951 30.9481C168.932 30.9481 168.025 31.1073 167.229 31.4256C166.45 31.728 165.837 32.1816 165.391 32.7865C164.945 33.3913 164.723 34.1393 164.723 35.0307C164.723 36.1448 165.113 37.0361 165.892 37.7046C166.672 38.3731 167.787 38.7869 169.235 38.9461L170.381 39.0654C171.24 39.145 171.845 39.3121 172.195 39.5668C172.561 39.8214 172.744 40.1636 172.744 40.5934C172.744 41.0868 172.506 41.4767 172.028 41.7632C171.567 42.0497 170.938 42.193 170.142 42.193C169.187 42.193 168.487 42.0099 168.041 41.6439C167.596 41.2778 167.349 40.8719 167.301 40.4263H164.317C164.365 41.7632 164.89 42.8137 165.892 43.5777Z" fill="#131313" fill-opacity="0.32"/>
<path fill-rule="evenodd" clip-rule="evenodd" d="M78.5715 21.6765C70.6609 21.6765 64.248 28.0893 64.248 35.9999C64.248 43.9106 70.6609 50.3234 78.5715 50.3234C86.4821 50.3234 92.8949 43.9106 92.8949 35.9999C92.8949 28.0893 86.4821 21.6765 78.5715 21.6765ZM67.4598 35.9999C67.4598 29.8632 72.4347 24.8883 78.5715 24.8883C84.7083 24.8883 89.6831 29.8632 89.6831 35.9999C89.6831 41.6005 85.5397 46.2333 80.151 47.0002V44.5492L83.003 43.4963C84.6512 42.8879 85.7459 41.3169 85.7459 39.5599V34.734C85.7459 33.8471 85.0269 33.1281 84.14 33.1281C83.2531 33.1281 82.5341 33.8471 82.5341 34.734V39.5599C82.5341 39.9721 82.2773 40.3406 81.8907 40.4833L80.151 41.1255V28.4141C80.151 27.5272 79.432 26.8082 78.5451 26.8082C77.6582 26.8082 76.9392 27.5272 76.9392 28.4141V35.3045L75.2514 34.6814C74.8648 34.5387 74.6081 34.1702 74.6081 33.7581V31.6777C74.6081 30.7908 73.8891 30.0718 73.0022 30.0718C72.1152 30.0718 71.3963 30.7908 71.3963 31.6777V33.7581C71.3963 35.5151 72.4909 37.086 74.1392 37.6945L76.9392 38.7281V46.9925C71.5763 46.203 67.4598 41.5822 67.4598 35.9999Z" fill="#131313" fill-opacity="0.32"/>
</svg>
