<svg width="48" height="48" viewBox="0 0 48 48" fill="none" xmlns="http://www.w3.org/2000/svg">
<path d="M19.8333 31.5V29.8333H23.1667V27.25C22.4861 27.0972 21.8786 26.8092 21.3442 26.3858C20.8097 25.9625 20.4172 25.4311 20.1667 24.7917C19.125 24.6667 18.2536 24.2119 17.5525 23.4275C16.8514 22.6431 16.5006 21.7228 16.5 20.6667V19.8333C16.5 19.375 16.6633 18.9828 16.99 18.6567C17.3167 18.3306 17.7089 18.1672 18.1667 18.1667H19.8333V16.5H28.1667V18.1667H29.8333C30.2917 18.1667 30.6842 18.33 31.0108 18.6567C31.3375 18.9833 31.5006 19.3756 31.5 19.8333V20.6667C31.5 21.7222 31.1492 22.6425 30.4475 23.4275C29.7458 24.2125 28.8744 24.6672 27.8333 24.7917C27.5833 25.4306 27.1911 25.9619 26.6567 26.3858C26.1222 26.8097 25.5144 27.0978 24.8333 27.25V29.8333H28.1667V31.5H19.8333ZM19.8333 23V19.8333H18.1667V20.6667C18.1667 21.1944 18.3194 21.6703 18.625 22.0942C18.9306 22.5181 19.3333 22.82 19.8333 23ZM28.1667 23C28.6667 22.8194 29.0694 22.5172 29.375 22.0933C29.6806 21.6694 29.8333 21.1939 29.8333 20.6667V19.8333H28.1667V23Z" fill="#131313"/>
</svg>
