<svg width="240" height="72" viewBox="0 0 240 72" fill="none" xmlns="http://www.w3.org/2000/svg">
<path d="M81.9086 22.569L68.4775 38.6863H80.5655L79.2224 49.4311L92.6535 33.3138H80.5655L81.9086 22.569Z" fill="#131313" fill-opacity="0.32"/>
<path d="M111.669 33.8035V38.7753H104.498V45.5852H98.8628V25.3966H113.176V30.3684H104.498V33.8035H111.669Z" fill="#131313" fill-opacity="0.32"/>
<path d="M121.034 25.3966V45.5852H115.851V25.3966H121.034Z" fill="#131313" fill-opacity="0.32"/>
<path d="M129.586 29.7658C130.389 29.7658 131.173 29.9466 131.936 30.3082C132.719 30.6497 133.362 31.0916 133.864 31.634V30.2178H139.047V45.5852H133.864V43.0239C133.483 43.8676 132.9 44.5808 132.117 45.1633C131.333 45.7459 130.389 46.0372 129.284 46.0372C128.139 46.0372 127.065 45.7459 126.06 45.1633C125.056 44.5808 124.232 43.6868 123.589 42.4816C122.967 41.2562 122.655 39.7194 122.655 37.8713C122.655 36.1438 122.967 34.6773 123.589 33.472C124.232 32.2667 125.076 31.3527 126.12 30.73C127.185 30.0872 128.34 29.7658 129.586 29.7658ZM130.67 34.828C129.927 34.828 129.304 35.1293 128.802 35.7319C128.32 36.3346 128.079 37.0477 128.079 37.8713C128.079 38.6949 128.33 39.388 128.832 39.9505C129.334 40.5129 129.997 40.7942 130.821 40.7942C131.263 40.7942 131.715 40.6837 132.177 40.4627C132.639 40.2216 133.031 39.8701 133.352 39.4081C133.694 38.926 133.864 38.3133 133.864 37.57V36.0935C133.422 35.7319 132.92 35.4306 132.358 35.1896C131.815 34.9485 131.253 34.828 130.67 34.828Z" fill="#131313" fill-opacity="0.32"/>
<path d="M147.086 29.7658C148.091 29.7658 149.015 29.9164 149.859 30.2178C150.722 30.499 151.415 30.8907 151.938 31.3929V35.4608C151.415 35.1393 150.823 34.838 150.16 34.5568C149.497 34.2555 148.784 34.1048 148.02 34.1048C147.538 34.1048 147.106 34.2053 146.725 34.4061C146.363 34.5869 146.182 34.8782 146.182 35.28C146.182 35.5612 146.293 35.7721 146.514 35.9127C146.735 36.0534 147.167 36.204 147.81 36.3647L148.744 36.6058C151.415 37.2888 152.751 38.7251 152.751 40.9147C152.751 41.9191 152.45 42.813 151.847 43.5965C151.265 44.3598 150.491 44.9624 149.527 45.4044C148.583 45.8262 147.558 46.0372 146.454 46.0372C145.309 46.0372 144.244 45.8765 143.26 45.555C142.275 45.2135 141.432 44.8017 140.728 44.3196V40.2819C141.452 40.7238 142.265 41.0955 143.169 41.3968C144.093 41.6981 144.917 41.8488 145.64 41.8488C146.223 41.8488 146.644 41.7785 146.906 41.6379C147.187 41.4972 147.327 41.2461 147.327 40.8846C147.327 40.6033 147.167 40.3924 146.845 40.2518C146.524 40.0911 146.062 39.9103 145.459 39.7094L143.922 39.2273C142.798 38.8858 141.974 38.3534 141.452 37.6303C140.929 36.887 140.668 35.983 140.668 34.9184C140.668 33.8537 140.949 32.9397 141.512 32.1763C142.074 31.413 142.838 30.8204 143.802 30.3986C144.786 29.9767 145.881 29.7658 147.086 29.7658Z" fill="#131313" fill-opacity="0.32"/>
<path d="M163.442 29.7658C165.009 29.7658 166.285 30.2981 167.269 31.3628C168.273 32.4275 168.775 34.0044 168.775 36.0935V45.5852H163.593L163.563 36.9071C163.563 36.1438 163.352 35.6114 162.93 35.3101C162.508 34.9887 162.036 34.828 161.514 34.828C160.951 34.828 160.479 34.9786 160.097 35.28C159.716 35.5612 159.384 35.9027 159.103 36.3045V45.5852H153.92V25.3966H159.103V32.2065C159.585 31.5436 160.168 30.9711 160.851 30.4889C161.554 30.0068 162.418 29.7658 163.442 29.7658Z" fill="#131313" fill-opacity="0.32"/>
<path d="M168.515 25.5142V26.1553H167.743V28.1059H167.01V26.1553H166.238V25.5142H168.515Z" fill="#131313" fill-opacity="0.32"/>
<path d="M171.523 25.4753V28.1175H170.79V26.8353L170.253 27.4376H170.034L169.497 26.8353V28.1175H168.764V25.4753H169.023L170.144 26.6022L171.264 25.4753H171.523Z" fill="#131313" fill-opacity="0.32"/>
</svg>
