<svg width="240" height="72" viewBox="0 0 240 72" fill="none" xmlns="http://www.w3.org/2000/svg">
<path d="M101.584 43.3636C100.102 43.3636 98.7915 43.0725 97.6534 42.4902C96.5154 41.8948 95.6354 41.0545 95.0135 39.9694C94.3915 38.8843 94.0806 37.6073 94.0806 36.1384C94.0806 34.6696 94.3915 33.3926 95.0135 32.3075C95.6354 31.2092 96.5154 30.3689 97.6534 29.7867C98.7915 29.1912 100.102 28.8934 101.584 28.8934C102.589 28.8934 103.476 28.9993 104.243 29.211C105.024 29.4095 105.739 29.7271 106.387 30.1638V33.042C105.805 32.5656 105.137 32.2215 104.382 32.0098C103.641 31.7848 102.794 31.6724 101.842 31.6724C100.955 31.6724 100.154 31.8576 99.4399 32.2281C98.7385 32.5854 98.1828 33.1015 97.7725 33.7764C97.3623 34.4513 97.1572 35.2386 97.1572 36.1384C97.1572 37.0515 97.3425 37.8521 97.713 38.5402C98.0967 39.2151 98.6327 39.7378 99.3208 40.1083C100.009 40.4788 100.803 40.6641 101.703 40.6641C102.523 40.6641 103.238 40.5185 103.846 40.2274V37.5478H101.603V35.3246H106.764V42.0138C105.454 42.9137 103.727 43.3636 101.584 43.3636Z" fill="#131313" fill-opacity="0.32"/>
<path d="M107.461 33.5382H110.359V34.9078C110.743 34.4446 111.279 34.094 111.967 33.8558C112.655 33.6044 113.436 33.4786 114.309 33.4786V35.7613C113.396 35.7613 112.589 35.9003 111.887 36.1781C111.199 36.456 110.723 36.8795 110.458 37.4485V43.0659H107.461V33.5382Z" fill="#131313" fill-opacity="0.32"/>
<path d="M120.069 43.3636C118.243 43.3636 116.807 42.9269 115.762 42.0535C114.716 41.1669 114.194 39.9297 114.194 38.3417C114.194 36.767 114.657 35.5231 115.583 34.6101C116.522 33.697 117.859 33.2404 119.593 33.2404C120.731 33.2404 121.697 33.4522 122.491 33.8756C123.284 34.2991 123.887 34.8879 124.297 35.6422C124.707 36.3833 124.912 37.2235 124.912 38.1631V39.3739H117.052C117.264 40.5913 118.402 41.2 120.466 41.2C121.075 41.2 121.703 41.1471 122.352 41.0412C123 40.9354 123.562 40.7898 124.039 40.6045V42.7086C123.576 42.9071 122.98 43.0659 122.252 43.185C121.525 43.3041 120.797 43.3636 120.069 43.3636ZM122.074 37.4287C122.034 36.7935 121.796 36.3039 121.359 35.9598C120.922 35.6025 120.32 35.4239 119.553 35.4239C118.799 35.4239 118.203 35.6025 117.766 35.9598C117.33 36.3171 117.092 36.8067 117.052 37.4287H122.074Z" fill="#131313" fill-opacity="0.32"/>
<path d="M131.056 43.3636C129.23 43.3636 127.794 42.9269 126.749 42.0535C125.703 41.1669 125.18 39.9297 125.18 38.3417C125.18 36.767 125.644 35.5231 126.57 34.6101C127.509 33.697 128.846 33.2404 130.579 33.2404C131.717 33.2404 132.683 33.4522 133.477 33.8756C134.271 34.2991 134.873 34.8879 135.284 35.6422C135.694 36.3833 135.899 37.2235 135.899 38.1631V39.3739H128.039C128.25 40.5913 129.388 41.2 131.453 41.2C132.062 41.2 132.69 41.1471 133.338 41.0412C133.987 40.9354 134.549 40.7898 135.026 40.6045V42.7086C134.563 42.9071 133.967 43.0659 133.239 43.185C132.511 43.3041 131.784 43.3636 131.056 43.3636ZM133.061 37.4287C133.021 36.7935 132.783 36.3039 132.346 35.9598C131.909 35.6025 131.307 35.4239 130.54 35.4239C129.785 35.4239 129.19 35.6025 128.753 35.9598C128.317 36.3171 128.078 36.8067 128.039 37.4287H133.061Z" fill="#131313" fill-opacity="0.32"/>
<path d="M136.564 33.5382H139.462V34.7093C139.899 34.2197 140.415 33.8558 141.011 33.6176C141.619 33.3662 142.254 33.2404 142.916 33.2404C144.213 33.2404 145.179 33.5911 145.814 34.2925C146.462 34.9806 146.787 35.9135 146.787 37.0912V43.0659H143.789V37.4287C143.789 36.198 143.22 35.5827 142.082 35.5827C141.58 35.5827 141.11 35.7084 140.673 35.9598C140.236 36.198 139.866 36.5553 139.562 37.0317V43.0659H136.564V33.5382Z" fill="#131313" fill-opacity="0.32"/>
<path d="M149.431 32.0693C148.968 32.0693 148.578 31.9172 148.26 31.6128C147.943 31.3084 147.784 30.9247 147.784 30.4615C147.784 30.0116 147.943 29.6345 148.26 29.3301C148.578 29.0125 148.968 28.8538 149.431 28.8538C149.894 28.8538 150.285 29.0125 150.602 29.3301C150.92 29.6345 151.079 30.0116 151.079 30.4615C151.079 30.9247 150.92 31.3084 150.602 31.6128C150.285 31.9172 149.894 32.0693 149.431 32.0693ZM147.923 33.5382H150.94V43.0659H147.923V33.5382Z" fill="#131313" fill-opacity="0.32"/>
<path d="M156.052 43.3636C155.337 43.3636 154.57 43.2842 153.749 43.1254C152.942 42.9798 152.307 42.7681 151.844 42.4902V40.148C152.373 40.4656 153.008 40.7236 153.749 40.9221C154.49 41.1206 155.178 41.2199 155.813 41.2199C156.356 41.2199 156.753 41.1736 157.004 41.0809C157.256 40.9883 157.382 40.8163 157.382 40.5648C157.382 40.3664 157.309 40.2076 157.163 40.0885C157.018 39.9561 156.793 39.8437 156.488 39.751C156.197 39.6452 155.708 39.493 155.02 39.2945C154.212 39.0563 153.577 38.8181 153.114 38.5799C152.664 38.3285 152.32 38.0175 152.082 37.647C151.857 37.2765 151.744 36.8001 151.744 36.2178C151.744 35.2254 152.135 34.4843 152.915 33.9947C153.709 33.4919 154.781 33.2404 156.131 33.2404C156.793 33.2404 157.474 33.3132 158.176 33.4588C158.89 33.5911 159.439 33.7698 159.823 33.9947V36.2774C159.439 36.026 158.936 35.8209 158.314 35.6621C157.706 35.5033 157.11 35.4239 156.528 35.4239C155.986 35.4239 155.562 35.4768 155.258 35.5827C154.967 35.6885 154.821 35.887 154.821 36.1781C154.821 36.4296 154.96 36.6214 155.238 36.7538C155.529 36.8861 156.065 37.0515 156.846 37.25L157.243 37.3493C158.076 37.5742 158.725 37.8256 159.188 38.1035C159.651 38.3682 159.975 38.6924 160.16 39.0761C160.359 39.4467 160.458 39.9164 160.458 40.4854C160.458 41.3588 160.081 42.0602 159.327 42.5895C158.573 43.1056 157.481 43.3636 156.052 43.3636Z" fill="#131313" fill-opacity="0.32"/>
<path d="M161.151 28.3972H164.148V34.6299C164.598 34.1668 165.108 33.8227 165.677 33.5977C166.246 33.3595 166.854 33.2404 167.503 33.2404C168.8 33.2404 169.766 33.5911 170.401 34.2925C171.049 34.9806 171.373 35.9135 171.373 37.0912V43.0659H168.376V37.4287C168.376 36.198 167.807 35.5827 166.669 35.5827C166.166 35.5827 165.697 35.7084 165.26 35.9598C164.823 36.198 164.453 36.5553 164.148 37.0317V43.0659H161.151V28.3972Z" fill="#131313" fill-opacity="0.32"/>
<path fill-rule="evenodd" clip-rule="evenodd" d="M68.6597 35.4392C73.6335 35.1039 77.9688 38.8279 78.3726 43.8123C78.4144 44.3287 78.4124 44.8389 78.3696 45.3386C73.3958 45.6739 69.0606 41.9499 68.6567 36.9656C68.6149 36.4491 68.6169 35.9389 68.6597 35.4392ZM88.4341 35.449C88.9506 35.4071 89.4607 35.4092 89.9605 35.4519C90.2955 40.4255 86.5716 44.76 81.5874 45.1638C81.0709 45.2057 80.5607 45.2036 80.061 45.1609C79.7259 40.1872 83.4499 35.8528 88.4341 35.449ZM79.2788 26.6404C81.8002 26.6404 83.8442 28.6844 83.8442 31.2058C83.8442 33.7271 81.8001 35.7712 79.2788 35.7712C76.7576 35.7711 74.7134 33.727 74.7134 31.2058C74.7134 28.6845 76.7576 26.6405 79.2788 26.6404Z" fill="#131313" fill-opacity="0.32"/>
</svg>
