<svg width="1079" height="354" viewBox="0 0 1079 354" fill="none" xmlns="http://www.w3.org/2000/svg">
<rect width="1078.53" height="353.418" fill="white"/>
<path fill-rule="evenodd" clip-rule="evenodd" d="M104.602 79.2144C104.602 93.2369 93.2349 104.604 79.2125 104.604C65.19 104.604 53.8232 93.2369 53.8232 79.2144C53.8232 65.1919 65.19 53.8252 79.2125 53.8252C93.2349 53.8252 104.602 65.1919 104.602 79.2144ZM89.4443 71.5215C89.8009 71.8785 90.0012 72.3625 90.0012 72.8671C90.0012 73.3717 89.8009 73.8557 89.4443 74.2127L76.7497 86.9073C76.3927 87.2639 75.9087 87.4642 75.4041 87.4642C74.8995 87.4642 74.4155 87.2639 74.0585 86.9073L68.9806 81.8295C68.7935 81.6552 68.6435 81.445 68.5394 81.2114C68.4353 80.9778 68.3794 80.7256 68.3748 80.47C68.3703 80.2143 68.4174 79.9603 68.5131 79.7232C68.6089 79.4861 68.7515 79.2707 68.9323 79.0899C69.1131 78.9091 69.3285 78.7665 69.5656 78.6708C69.8027 78.575 70.0567 78.528 70.3123 78.5325C70.568 78.537 70.8202 78.593 71.0537 78.697C71.2873 78.8011 71.4975 78.9512 71.6719 79.1382L75.4041 82.8705L81.0786 77.196L86.7531 71.5215C87.1101 71.1649 87.5941 70.9646 88.0987 70.9646C88.6033 70.9646 89.0873 71.1649 89.4443 71.5215Z" fill="#36C436"/>
<path d="M156.974 102.747L147.28 67.2945H151.642L159.051 96.169H159.397L166.945 67.2945H171.792L179.34 96.169H179.686L187.095 67.2945H191.457L181.763 102.747H177.331L169.507 74.4958H169.23L161.406 102.747H156.974ZM196.252 102.747V76.1576H200.338V102.747H196.252ZM198.33 71.7261C197.533 71.7261 196.847 71.4549 196.27 70.9124C195.704 70.37 195.421 69.718 195.421 68.9563C195.421 68.1946 195.704 67.5426 196.27 67.0002C196.847 66.4578 197.533 66.1866 198.33 66.1866C199.126 66.1866 199.807 66.4578 200.372 67.0002C200.949 67.5426 201.238 68.1946 201.238 68.9563C201.238 69.718 200.949 70.37 200.372 70.9124C199.807 71.4549 199.126 71.7261 198.33 71.7261ZM207.82 102.747V76.1576H211.767V80.1737H212.044C212.529 78.8581 213.406 77.7906 214.675 76.9712C215.945 76.1519 217.376 75.7422 218.968 75.7422C219.268 75.7422 219.643 75.7479 220.094 75.7595C220.544 75.771 220.884 75.7883 221.115 75.8114V79.966C220.976 79.9314 220.659 79.8795 220.163 79.8102C219.678 79.7294 219.165 79.689 218.622 79.689C217.33 79.689 216.176 79.9602 215.16 80.5026C214.156 81.0335 213.36 81.7721 212.771 82.7184C212.194 83.6532 211.906 84.7207 211.906 85.9209V102.747H207.82ZM236.296 103.301C233.734 103.301 231.524 102.736 229.666 101.605C227.82 100.462 226.395 98.8694 225.391 96.8268C224.398 94.7725 223.902 92.3837 223.902 89.6601C223.902 86.9365 224.398 84.5361 225.391 82.4588C226.395 80.3699 227.791 78.7427 229.58 77.5771C231.38 76.4 233.481 75.8114 235.881 75.8114C237.266 75.8114 238.633 76.0422 239.984 76.5038C241.334 76.9655 242.563 77.7156 243.671 78.7543C244.779 79.7814 245.662 81.1431 246.319 82.8396C246.977 84.5361 247.306 86.6249 247.306 89.1061V90.8372H226.81V87.3058H243.152C243.152 85.8055 242.852 84.4668 242.251 83.2897C241.663 82.1126 240.82 81.1835 239.724 80.5026C238.639 79.8218 237.358 79.4813 235.881 79.4813C234.254 79.4813 232.846 79.8852 231.657 80.6931C230.48 81.4894 229.574 82.528 228.939 83.809C228.305 85.09 227.987 86.4633 227.987 87.929V90.2833C227.987 92.2913 228.334 93.9936 229.026 95.39C229.73 96.7748 230.705 97.8308 231.951 98.5578C233.198 99.2734 234.646 99.6311 236.296 99.6311C237.37 99.6311 238.339 99.4811 239.205 99.181C240.082 98.8694 240.838 98.4078 241.472 97.7962C242.107 97.173 242.598 96.3998 242.944 95.4765L246.891 96.5844C246.475 97.9231 245.777 99.1003 244.796 100.116C243.815 101.12 242.603 101.905 241.161 102.47C239.718 103.024 238.097 103.301 236.296 103.301ZM265.361 76.1576V79.6198H251.028V76.1576H265.361ZM255.321 102.747V72.4877C255.321 70.9644 255.679 69.6949 256.394 68.6793C257.11 67.6638 258.039 66.9021 259.181 66.3943C260.324 65.8865 261.53 65.6326 262.799 65.6326C263.803 65.6326 264.623 65.7134 265.258 65.875C265.892 66.0366 266.365 66.1866 266.677 66.3251L265.5 69.8565C265.292 69.7872 265.004 69.7007 264.634 69.5968C264.277 69.493 263.803 69.441 263.215 69.441C261.865 69.441 260.889 69.7815 260.289 70.4624C259.701 71.1433 259.406 72.1415 259.406 73.4571V102.747H255.321ZM271.087 102.747V76.1576H275.034V80.1737H275.311C275.795 78.8581 276.673 77.7906 277.942 76.9712C279.211 76.1519 280.643 75.7422 282.235 75.7422C282.535 75.7422 282.91 75.7479 283.36 75.7595C283.81 75.771 284.151 75.7883 284.382 75.8114V79.966C284.243 79.9314 283.926 79.8795 283.43 79.8102C282.945 79.7294 282.431 79.689 281.889 79.689C280.596 79.689 279.442 79.9602 278.427 80.5026C277.423 81.0335 276.626 81.7721 276.038 82.7184C275.461 83.6532 275.172 84.7207 275.172 85.9209V102.747H271.087ZM297.049 103.37C295.364 103.37 293.835 103.053 292.461 102.418C291.088 101.772 289.998 100.843 289.19 99.6311C288.382 98.4078 287.978 96.9306 287.978 95.1995C287.978 93.6762 288.278 92.4414 288.878 91.495C289.478 90.5372 290.28 89.787 291.284 89.2446C292.288 88.7022 293.396 88.2983 294.608 88.0329C295.831 87.7559 297.06 87.5366 298.295 87.3751C299.911 87.1673 301.221 87.0115 302.225 86.9077C303.24 86.7923 303.979 86.6018 304.441 86.3364C304.914 86.071 305.15 85.6093 305.15 84.9515V84.813C305.15 83.105 304.683 81.7779 303.748 80.8316C302.825 79.8852 301.423 79.4121 299.542 79.4121C297.591 79.4121 296.062 79.8391 294.954 80.6931C293.846 81.5471 293.067 82.4588 292.617 83.4282L288.74 82.0433C289.432 80.4276 290.355 79.1697 291.509 78.2696C292.675 77.3578 293.944 76.7231 295.318 76.3654C296.703 75.9961 298.064 75.8114 299.403 75.8114C300.257 75.8114 301.238 75.9153 302.346 76.123C303.465 76.3192 304.544 76.7289 305.583 77.3521C306.633 77.9753 307.505 78.9158 308.197 80.1737C308.889 81.4317 309.236 83.1166 309.236 85.2285V102.747H305.15V99.1464H304.943C304.666 99.7234 304.204 100.341 303.558 100.999C302.911 101.656 302.052 102.216 300.978 102.678C299.905 103.139 298.595 103.37 297.049 103.37ZM297.672 99.7004C299.288 99.7004 300.65 99.383 301.757 98.7483C302.877 98.1135 303.719 97.2942 304.285 96.2901C304.862 95.2861 305.15 94.2301 305.15 93.1222V89.3831C304.977 89.5908 304.596 89.7813 304.008 89.9544C303.431 90.1159 302.761 90.2602 302 90.3871C301.25 90.5025 300.517 90.6064 299.801 90.6987C299.097 90.7795 298.526 90.8488 298.088 90.9065C297.026 91.0449 296.033 91.27 295.11 91.5816C294.198 91.8816 293.46 92.3375 292.894 92.9491C292.34 93.5492 292.063 94.3686 292.063 95.4073C292.063 96.8268 292.588 97.9 293.639 98.6271C294.7 99.3426 296.045 99.7004 297.672 99.7004ZM316.692 102.747V76.1576H320.639V80.3122H320.985C321.539 78.8927 322.434 77.7906 323.669 77.0059C324.903 76.2096 326.386 75.8114 328.117 75.8114C329.872 75.8114 331.332 76.2096 332.497 77.0059C333.674 77.7906 334.592 78.8927 335.25 80.3122H335.527C336.207 78.9389 337.229 77.8483 338.591 77.0405C339.952 76.2211 341.585 75.8114 343.489 75.8114C345.867 75.8114 347.811 76.5558 349.323 78.0445C350.835 79.5217 351.591 81.824 351.591 84.9515V102.747H347.506V84.9515C347.506 82.9896 346.969 81.5875 345.896 80.745C344.822 79.9025 343.559 79.4813 342.105 79.4813C340.235 79.4813 338.787 80.0468 337.76 81.1778C336.733 82.2972 336.219 83.7167 336.219 85.4362V102.747H332.064V84.5361C332.064 83.0243 331.574 81.8067 330.593 80.8835C329.612 79.9487 328.348 79.4813 326.802 79.4813C325.74 79.4813 324.748 79.7641 323.824 80.3295C322.913 80.895 322.174 81.6798 321.609 82.6838C321.055 83.6763 320.778 84.8246 320.778 86.1287V102.747H316.692ZM370.209 103.301C367.647 103.301 365.437 102.736 363.579 101.605C361.732 100.462 360.307 98.8694 359.303 96.8268C358.31 94.7725 357.814 92.3837 357.814 89.6601C357.814 86.9365 358.31 84.5361 359.303 82.4588C360.307 80.3699 361.703 78.7427 363.492 77.5771C365.292 76.4 367.393 75.8114 369.793 75.8114C371.178 75.8114 372.546 76.0422 373.896 76.5038C375.246 76.9655 376.475 77.7156 377.583 78.7543C378.691 79.7814 379.574 81.1431 380.232 82.8396C380.89 84.5361 381.218 86.6249 381.218 89.1061V90.8372H360.722V87.3058H377.064C377.064 85.8055 376.764 84.4668 376.164 83.2897C375.575 82.1126 374.733 81.1835 373.636 80.5026C372.552 79.8218 371.271 79.4813 369.793 79.4813C368.166 79.4813 366.758 79.8852 365.569 80.6931C364.392 81.4894 363.486 82.528 362.852 83.809C362.217 85.09 361.9 86.4633 361.9 87.929V90.2833C361.9 92.2913 362.246 93.9936 362.938 95.39C363.642 96.7748 364.617 97.8308 365.864 98.5578C367.11 99.2734 368.558 99.6311 370.209 99.6311C371.282 99.6311 372.251 99.4811 373.117 99.181C373.994 98.8694 374.75 98.4078 375.385 97.7962C376.019 97.173 376.51 96.3998 376.856 95.4765L380.803 96.5844C380.388 97.9231 379.689 99.1003 378.708 100.116C377.727 101.12 376.516 101.905 375.073 102.47C373.631 103.024 372.009 103.301 370.209 103.301ZM401.697 102.747V67.2945H405.99V83.082H424.894V67.2945H429.187V102.747H424.894V86.8903H405.99V102.747H401.697ZM448.03 103.301C445.629 103.301 443.523 102.73 441.711 101.587C439.911 100.445 438.503 98.8464 437.487 96.7921C436.483 94.7379 435.981 92.3375 435.981 89.5908C435.981 86.8211 436.483 84.4034 437.487 82.3376C438.503 80.2718 439.911 78.6677 441.711 77.5252C443.523 76.3827 445.629 75.8114 448.03 75.8114C450.43 75.8114 452.53 76.3827 454.331 77.5252C456.143 78.6677 457.551 80.2718 458.555 82.3376C459.57 84.4034 460.078 86.8211 460.078 89.5908C460.078 92.3375 459.57 94.7379 458.555 96.7921C457.551 98.8464 456.143 100.445 454.331 101.587C452.53 102.73 450.43 103.301 448.03 103.301ZM448.03 99.6311C449.853 99.6311 451.353 99.1637 452.53 98.2289C453.708 97.2942 454.579 96.0651 455.144 94.5417C455.71 93.0184 455.993 91.3681 455.993 89.5908C455.993 87.8136 455.71 86.1575 455.144 84.6226C454.579 83.0877 453.708 81.8471 452.53 80.9008C451.353 79.9545 449.853 79.4813 448.03 79.4813C446.206 79.4813 444.706 79.9545 443.529 80.9008C442.352 81.8471 441.48 83.0877 440.915 84.6226C440.349 86.1575 440.067 87.8136 440.067 89.5908C440.067 91.3681 440.349 93.0184 440.915 94.5417C441.48 96.0651 442.352 97.2942 443.529 98.2289C444.706 99.1637 446.206 99.6311 448.03 99.6311ZM466.314 102.747V76.1576H470.261V80.3122H470.607C471.161 78.8927 472.056 77.7906 473.29 77.0059C474.525 76.2096 476.008 75.8114 477.739 75.8114C479.493 75.8114 480.953 76.2096 482.119 77.0059C483.296 77.7906 484.214 78.8927 484.871 80.3122H485.148C485.829 78.9389 486.851 77.8483 488.212 77.0405C489.574 76.2211 491.207 75.8114 493.111 75.8114C495.489 75.8114 497.433 76.5558 498.945 78.0445C500.457 79.5217 501.213 81.824 501.213 84.9515V102.747H497.127V84.9515C497.127 82.9896 496.591 81.5875 495.518 80.745C494.444 79.9025 493.181 79.4813 491.726 79.4813C489.857 79.4813 488.409 80.0468 487.381 81.1778C486.354 82.2972 485.841 83.7167 485.841 85.4362V102.747H481.686V84.5361C481.686 83.0243 481.196 81.8067 480.215 80.8835C479.234 79.9487 477.97 79.4813 476.424 79.4813C475.362 79.4813 474.369 79.7641 473.446 80.3295C472.535 80.895 471.796 81.6798 471.23 82.6838C470.677 83.6763 470.4 84.8246 470.4 86.1287V102.747H466.314ZM519.831 103.301C517.269 103.301 515.059 102.736 513.201 101.605C511.354 100.462 509.929 98.8694 508.925 96.8268C507.932 94.7725 507.436 92.3837 507.436 89.6601C507.436 86.9365 507.932 84.5361 508.925 82.4588C509.929 80.3699 511.325 78.7427 513.114 77.5771C514.914 76.4 517.015 75.8114 519.415 75.8114C520.8 75.8114 522.168 76.0422 523.518 76.5038C524.868 76.9655 526.097 77.7156 527.205 78.7543C528.313 79.7814 529.196 81.1431 529.854 82.8396C530.511 84.5361 530.84 86.6249 530.84 89.1061V90.8372H510.344V87.3058H526.686C526.686 85.8055 526.386 84.4668 525.786 83.2897C525.197 82.1126 524.355 81.1835 523.258 80.5026C522.173 79.8218 520.892 79.4813 519.415 79.4813C517.788 79.4813 516.38 79.8852 515.191 80.6931C514.014 81.4894 513.108 82.528 512.474 83.809C511.839 85.09 511.521 86.4633 511.521 87.929V90.2833C511.521 92.2913 511.868 93.9936 512.56 95.39C513.264 96.7748 514.239 97.8308 515.486 98.5578C516.732 99.2734 518.18 99.6311 519.831 99.6311C520.904 99.6311 521.873 99.4811 522.739 99.181C523.616 98.8694 524.372 98.4078 525.007 97.7962C525.641 97.173 526.132 96.3998 526.478 95.4765L530.425 96.5844C530.009 97.9231 529.311 99.1003 528.33 100.116C527.349 101.12 526.138 101.905 524.695 102.47C523.252 103.024 521.631 103.301 519.831 103.301ZM537.055 112.718V76.1576H541.002V80.3815H541.486C541.787 79.9199 542.202 79.3313 542.733 78.6158C543.275 77.8887 544.048 77.2424 545.053 76.677C546.068 76.0999 547.441 75.8114 549.172 75.8114C551.411 75.8114 553.385 76.3711 555.093 77.4906C556.801 78.61 558.134 80.1968 559.092 82.251C560.049 84.3053 560.528 86.7288 560.528 89.5216C560.528 92.3375 560.049 94.7783 559.092 96.8441C558.134 98.8983 556.807 100.491 555.11 101.622C553.414 102.741 551.458 103.301 549.242 103.301C547.534 103.301 546.166 103.018 545.139 102.453C544.112 101.876 543.321 101.224 542.767 100.497C542.214 99.7581 541.787 99.1464 541.486 98.6617H541.14V112.718H537.055ZM541.071 89.4523C541.071 91.4604 541.365 93.2319 541.954 94.7668C542.542 96.2901 543.402 97.4846 544.533 98.3501C545.664 99.2041 547.049 99.6311 548.688 99.6311C550.396 99.6311 551.821 99.181 552.964 98.2809C554.118 97.3692 554.983 96.1459 555.56 94.611C556.149 93.0645 556.443 91.345 556.443 89.4523C556.443 87.5828 556.155 85.8979 555.577 84.3976C555.012 82.8858 554.152 81.6913 552.998 80.8142C551.856 79.9256 550.419 79.4813 548.688 79.4813C547.026 79.4813 545.63 79.9025 544.499 80.745C543.368 81.5759 542.514 82.7415 541.937 84.2418C541.36 85.7305 541.071 87.4674 541.071 89.4523ZM574.585 103.37C572.9 103.37 571.371 103.053 569.997 102.418C568.624 101.772 567.534 100.843 566.726 99.6311C565.918 98.4078 565.514 96.9306 565.514 95.1995C565.514 93.6762 565.814 92.4414 566.414 91.495C567.014 90.5372 567.816 89.787 568.82 89.2446C569.824 88.7022 570.932 88.2983 572.144 88.0329C573.367 87.7559 574.596 87.5366 575.831 87.3751C577.447 87.1673 578.757 87.0115 579.761 86.9077C580.776 86.7923 581.515 86.6018 581.977 86.3364C582.45 86.071 582.686 85.6093 582.686 84.9515V84.813C582.686 83.105 582.219 81.7779 581.284 80.8316C580.361 79.8852 578.959 79.4121 577.078 79.4121C575.127 79.4121 573.598 79.8391 572.49 80.6931C571.382 81.5471 570.603 82.4588 570.153 83.4282L566.276 82.0433C566.968 80.4276 567.891 79.1697 569.045 78.2696C570.211 77.3578 571.48 76.7231 572.854 76.3654C574.239 75.9961 575.6 75.8114 576.939 75.8114C577.793 75.8114 578.774 75.9153 579.882 76.123C581.001 76.3192 582.08 76.7289 583.119 77.3521C584.169 77.9753 585.041 78.9158 585.733 80.1737C586.425 81.4317 586.772 83.1166 586.772 85.2285V102.747H582.686V99.1464H582.479C582.202 99.7234 581.74 100.341 581.094 100.999C580.447 101.656 579.588 102.216 578.514 102.678C577.441 103.139 576.131 103.37 574.585 103.37ZM575.208 99.7004C576.824 99.7004 578.185 99.383 579.293 98.7483C580.413 98.1135 581.255 97.2942 581.821 96.2901C582.398 95.2861 582.686 94.2301 582.686 93.1222V89.3831C582.513 89.5908 582.132 89.7813 581.544 89.9544C580.967 90.1159 580.297 90.2602 579.536 90.3871C578.786 90.5025 578.053 90.6064 577.337 90.6987C576.633 90.7795 576.062 90.8488 575.623 90.9065C574.562 91.0449 573.569 91.27 572.646 91.5816C571.734 91.8816 570.996 92.3375 570.43 92.9491C569.876 93.5492 569.599 94.3686 569.599 95.4073C569.599 96.8268 570.124 97.9 571.175 98.6271C572.236 99.3426 573.581 99.7004 575.208 99.7004ZM604.961 113.272C602.988 113.272 601.291 113.018 599.872 112.51C598.452 112.014 597.269 111.356 596.323 110.537C595.388 109.729 594.644 108.864 594.09 107.94L597.344 105.655C597.714 106.14 598.181 106.694 598.746 107.317C599.312 107.952 600.085 108.5 601.066 108.962C602.059 109.435 603.357 109.671 604.961 109.671C607.108 109.671 608.879 109.152 610.275 108.113C611.672 107.075 612.37 105.448 612.37 103.232V97.8308H612.024C611.724 98.3155 611.297 98.9156 610.743 99.6311C610.2 100.335 609.416 100.964 608.389 101.518C607.373 102.06 606 102.332 604.269 102.332C602.122 102.332 600.195 101.824 598.487 100.808C596.79 99.7927 595.446 98.3155 594.453 96.3767C593.472 94.4379 592.982 92.0836 592.982 89.3139C592.982 86.5903 593.461 84.2187 594.419 82.1991C595.377 80.168 596.709 78.5985 598.417 77.4906C600.126 76.3711 602.099 75.8114 604.338 75.8114C606.069 75.8114 607.442 76.0999 608.458 76.677C609.485 77.2424 610.27 77.8887 610.812 78.6158C611.366 79.3313 611.793 79.9199 612.093 80.3815H612.509V76.1576H616.455V103.509C616.455 105.794 615.936 107.652 614.897 109.083C613.87 110.525 612.485 111.581 610.743 112.251C609.012 112.932 607.084 113.272 604.961 113.272ZM604.823 98.6617C606.461 98.6617 607.846 98.2866 608.977 97.5365C610.108 96.7864 610.968 95.7073 611.556 94.2994C612.145 92.8914 612.439 91.2065 612.439 89.2446C612.439 87.3289 612.151 85.6382 611.574 84.1725C610.997 82.7069 610.143 81.5586 609.012 80.7277C607.881 79.8968 606.484 79.4813 604.823 79.4813C603.091 79.4813 601.649 79.9199 600.495 80.7969C599.352 81.674 598.493 82.8512 597.915 84.3283C597.35 85.8055 597.067 87.4443 597.067 89.2446C597.067 91.0911 597.356 92.7241 597.933 94.1436C598.521 95.5515 599.387 96.6594 600.529 97.4673C601.683 98.2636 603.115 98.6617 604.823 98.6617ZM635.082 103.301C632.52 103.301 630.31 102.736 628.452 101.605C626.605 100.462 625.18 98.8694 624.176 96.8268C623.184 94.7725 622.687 92.3837 622.687 89.6601C622.687 86.9365 623.184 84.5361 624.176 82.4588C625.18 80.3699 626.576 78.7427 628.365 77.5771C630.166 76.4 632.266 75.8114 634.666 75.8114C636.051 75.8114 637.419 76.0422 638.769 76.5038C640.119 76.9655 641.348 77.7156 642.456 78.7543C643.564 79.7814 644.447 81.1431 645.105 82.8396C645.763 84.5361 646.092 86.6249 646.092 89.1061V90.8372H625.595V87.3058H641.937C641.937 85.8055 641.637 84.4668 641.037 83.2897C640.448 82.1126 639.606 81.1835 638.509 80.5026C637.425 79.8218 636.144 79.4813 634.666 79.4813C633.039 79.4813 631.631 79.8852 630.443 80.6931C629.265 81.4894 628.359 82.528 627.725 83.809C627.09 85.09 626.773 86.4633 626.773 87.929V90.2833C626.773 92.2913 627.119 93.9936 627.811 95.39C628.515 96.7748 629.49 97.8308 630.737 98.5578C631.983 99.2734 633.432 99.6311 635.082 99.6311C636.155 99.6311 637.125 99.4811 637.99 99.181C638.867 98.8694 639.623 98.4078 640.258 97.7962C640.893 97.173 641.383 96.3998 641.729 95.4765L645.676 96.5844C645.261 97.9231 644.562 99.1003 643.581 100.116C642.601 101.12 641.389 101.905 639.946 102.47C638.504 103.024 636.882 103.301 635.082 103.301Z" fill="#262424"/>
<path d="M148.301 165.432V162.1H171.567V165.432H161.812V193.121H158.056V165.432H148.301ZM183.26 193.605C181.019 193.605 179.085 193.111 177.459 192.121C175.843 191.121 174.596 189.728 173.718 187.94C172.849 186.143 172.415 184.053 172.415 181.669C172.415 179.286 172.849 177.186 173.718 175.368C174.596 173.541 175.818 172.117 177.383 171.097C178.959 170.067 180.797 169.552 182.897 169.552C184.109 169.552 185.305 169.754 186.487 170.158C187.668 170.562 188.744 171.218 189.713 172.127C190.682 173.026 191.455 174.217 192.031 175.702C192.606 177.186 192.894 179.014 192.894 181.185V182.699H174.96V179.609H189.259C189.259 178.297 188.996 177.125 188.471 176.095C187.956 175.065 187.219 174.253 186.26 173.657C185.31 173.061 184.189 172.763 182.897 172.763C181.473 172.763 180.241 173.116 179.201 173.823C178.171 174.52 177.378 175.429 176.823 176.55C176.268 177.671 175.99 178.872 175.99 180.155V182.215C175.99 183.972 176.293 185.461 176.899 186.683C177.515 187.895 178.368 188.819 179.459 189.455C180.549 190.081 181.816 190.394 183.26 190.394C184.2 190.394 185.048 190.263 185.805 190C186.573 189.728 187.234 189.324 187.789 188.789C188.345 188.243 188.774 187.567 189.077 186.759L192.53 187.728C192.167 188.9 191.556 189.93 190.698 190.818C189.839 191.697 188.779 192.383 187.517 192.878C186.254 193.363 184.836 193.605 183.26 193.605ZM198.332 193.121V169.855H201.785V173.49H202.088C202.573 172.248 203.355 171.284 204.436 170.597C205.516 169.9 206.814 169.552 208.329 169.552C209.864 169.552 211.141 169.9 212.161 170.597C213.191 171.284 213.994 172.248 214.569 173.49H214.812C215.407 172.288 216.301 171.334 217.493 170.627C218.684 169.91 220.113 169.552 221.779 169.552C223.859 169.552 225.561 170.203 226.884 171.506C228.207 172.798 228.868 174.813 228.868 177.55V193.121H225.293V177.55C225.293 175.833 224.824 174.606 223.885 173.869C222.946 173.132 221.84 172.763 220.567 172.763C218.932 172.763 217.664 173.258 216.766 174.247C215.867 175.227 215.417 176.469 215.417 177.974V193.121H211.782V177.186C211.782 175.863 211.353 174.798 210.495 173.99C209.636 173.172 208.531 172.763 207.178 172.763C206.248 172.763 205.38 173.01 204.572 173.505C203.774 174 203.128 174.687 202.633 175.565C202.149 176.434 201.906 177.438 201.906 178.58V193.121H198.332ZM238.979 162.1V193.121H235.404V162.1H238.979ZM245.526 193.121V169.855H249.101V193.121H245.526ZM247.344 165.977C246.647 165.977 246.046 165.74 245.541 165.265C245.046 164.791 244.799 164.22 244.799 163.554C244.799 162.887 245.046 162.317 245.541 161.842C246.046 161.367 246.647 161.13 247.344 161.13C248.04 161.13 248.636 161.367 249.131 161.842C249.636 162.317 249.888 162.887 249.888 163.554C249.888 164.22 249.636 164.791 249.131 165.265C248.636 165.74 248.04 165.977 247.344 165.977ZM272.128 175.065L268.917 175.974C268.715 175.439 268.417 174.919 268.023 174.414C267.639 173.899 267.114 173.475 266.448 173.142C265.781 172.809 264.928 172.642 263.888 172.642C262.464 172.642 261.277 172.97 260.328 173.626C259.389 174.273 258.92 175.096 258.92 176.095C258.92 176.984 259.243 177.686 259.889 178.201C260.535 178.716 261.545 179.145 262.918 179.488L266.372 180.337C268.452 180.841 270.002 181.614 271.022 182.654C272.042 183.684 272.552 185.012 272.552 186.638C272.552 187.971 272.168 189.162 271.401 190.212C270.643 191.263 269.583 192.091 268.22 192.696C266.857 193.302 265.271 193.605 263.464 193.605C261.091 193.605 259.127 193.09 257.572 192.06C256.016 191.03 255.032 189.526 254.618 187.547L258.011 186.698C258.334 187.95 258.945 188.89 259.844 189.516C260.752 190.142 261.939 190.455 263.403 190.455C265.069 190.455 266.392 190.101 267.372 189.394C268.361 188.677 268.856 187.819 268.856 186.819C268.856 186.012 268.573 185.335 268.008 184.79C267.442 184.234 266.574 183.82 265.402 183.548L261.525 182.639C259.394 182.134 257.829 181.351 256.829 180.291C255.84 179.221 255.345 177.883 255.345 176.277C255.345 174.964 255.713 173.803 256.451 172.793C257.198 171.784 258.213 170.991 259.495 170.415C260.788 169.84 262.252 169.552 263.888 169.552C266.19 169.552 267.998 170.057 269.31 171.067C270.633 172.076 271.572 173.409 272.128 175.065Z" fill="#505050"/>
<rect x="146.241" y="232.494" width="275.495" height="73.121" rx="12.1868" fill="#F1EDEA"/>
<circle cx="182.802" cy="269.055" r="12.1868" fill="#F85959"/>
<path d="M222.045 280.555V258.397H224.729V268.264H236.543V258.397H239.226V280.555H236.543V270.644H224.729V280.555H222.045ZM244.252 280.555V263.936H246.805V280.555H244.252ZM245.55 261.167C245.053 261.167 244.623 260.997 244.263 260.658C243.909 260.319 243.733 259.912 243.733 259.435C243.733 258.959 243.909 258.552 244.263 258.213C244.623 257.874 245.053 257.704 245.55 257.704C246.048 257.704 246.474 257.874 246.827 258.213C247.188 258.552 247.368 258.959 247.368 259.435C247.368 259.912 247.188 260.319 246.827 260.658C246.474 260.997 246.048 261.167 245.55 261.167ZM258.19 287.133C256.957 287.133 255.896 286.974 255.009 286.657C254.122 286.347 253.383 285.935 252.791 285.423C252.207 284.918 251.742 284.377 251.395 283.8L253.429 282.372C253.66 282.675 253.952 283.021 254.306 283.411C254.659 283.808 255.143 284.15 255.756 284.439C256.376 284.735 257.187 284.882 258.19 284.882C259.532 284.882 260.639 284.558 261.511 283.909C262.384 283.26 262.821 282.242 262.821 280.858V277.482H262.604C262.417 277.785 262.15 278.16 261.804 278.607C261.465 279.047 260.974 279.44 260.332 279.787C259.697 280.126 258.839 280.295 257.757 280.295C256.416 280.295 255.211 279.978 254.144 279.343C253.083 278.708 252.243 277.785 251.623 276.573C251.01 275.361 250.703 273.89 250.703 272.159C250.703 270.457 251.002 268.974 251.601 267.712C252.2 266.443 253.033 265.462 254.1 264.769C255.168 264.07 256.401 263.72 257.8 263.72C258.882 263.72 259.741 263.9 260.375 264.261C261.017 264.614 261.508 265.018 261.847 265.473C262.193 265.92 262.46 266.288 262.648 266.576H262.907V263.936H265.374V281.031C265.374 282.459 265.049 283.62 264.4 284.515C263.758 285.416 262.893 286.076 261.804 286.494C260.722 286.92 259.517 287.133 258.19 287.133ZM258.103 278.001C259.128 278.001 259.993 277.767 260.7 277.298C261.407 276.829 261.944 276.155 262.312 275.275C262.68 274.395 262.864 273.342 262.864 272.116C262.864 270.918 262.684 269.862 262.323 268.946C261.962 268.03 261.429 267.312 260.722 266.793C260.015 266.273 259.142 266.014 258.103 266.014C257.021 266.014 256.12 266.288 255.399 266.836C254.685 267.384 254.147 268.12 253.787 269.043C253.433 269.966 253.256 270.99 253.256 272.116C253.256 273.27 253.437 274.29 253.797 275.178C254.165 276.057 254.706 276.75 255.42 277.255C256.142 277.752 257.036 278.001 258.103 278.001ZM272.601 270.558V280.555H270.048V258.397H272.601V266.533H272.818C273.207 265.675 273.791 264.993 274.57 264.488C275.357 263.976 276.402 263.72 277.708 263.72C278.84 263.72 279.832 263.947 280.683 264.402C281.534 264.849 282.194 265.538 282.663 266.468C283.139 267.391 283.377 268.567 283.377 269.995V280.555H280.824V270.168C280.824 268.848 280.481 267.828 279.796 267.106C279.118 266.378 278.177 266.014 276.972 266.014C276.136 266.014 275.385 266.19 274.722 266.544C274.065 266.897 273.546 267.413 273.164 268.091C272.789 268.769 272.601 269.591 272.601 270.558ZM296.964 280.555V258.397H304.45C306.189 258.397 307.61 258.711 308.713 259.338C309.824 259.958 310.646 260.799 311.18 261.859C311.714 262.919 311.981 264.102 311.981 265.408C311.981 266.713 311.714 267.9 311.18 268.967C310.654 270.035 309.838 270.886 308.735 271.521C307.631 272.148 306.218 272.462 304.494 272.462H299.127V270.082H304.407C305.597 270.082 306.553 269.876 307.274 269.465C307.996 269.054 308.519 268.498 308.843 267.799C309.175 267.092 309.341 266.295 309.341 265.408C309.341 264.521 309.175 263.727 308.843 263.027C308.519 262.328 307.992 261.78 307.263 261.383C306.535 260.979 305.568 260.777 304.364 260.777H299.647V280.555H296.964ZM315.957 280.555V263.936H318.424V266.446H318.597C318.9 265.624 319.448 264.957 320.241 264.445C321.035 263.933 321.929 263.677 322.924 263.677C323.112 263.677 323.346 263.68 323.628 263.687C323.909 263.695 324.122 263.705 324.266 263.72V266.317C324.179 266.295 323.981 266.262 323.671 266.219C323.368 266.169 323.047 266.143 322.708 266.143C321.9 266.143 321.179 266.313 320.544 266.652C319.917 266.984 319.419 267.445 319.051 268.037C318.69 268.621 318.51 269.288 318.51 270.038V280.555H315.957ZM327.293 280.555V263.936H329.846V280.555H327.293ZM328.591 261.167C328.093 261.167 327.664 260.997 327.303 260.658C326.95 260.319 326.773 259.912 326.773 259.435C326.773 258.959 326.95 258.552 327.303 258.213C327.664 257.874 328.093 257.704 328.591 257.704C329.089 257.704 329.514 257.874 329.868 258.213C330.228 258.552 330.409 258.959 330.409 259.435C330.409 259.912 330.228 260.319 329.868 260.658C329.514 260.997 329.089 261.167 328.591 261.167ZM341.274 280.901C339.774 280.901 338.457 280.544 337.325 279.83C336.2 279.116 335.32 278.117 334.685 276.833C334.057 275.549 333.744 274.049 333.744 272.332C333.744 270.601 334.057 269.09 334.685 267.799C335.32 266.508 336.2 265.505 337.325 264.791C338.457 264.077 339.774 263.72 341.274 263.72C342.774 263.72 344.087 264.077 345.212 264.791C346.344 265.505 347.224 266.508 347.852 267.799C348.487 269.09 348.804 270.601 348.804 272.332C348.804 274.049 348.487 275.549 347.852 276.833C347.224 278.117 346.344 279.116 345.212 279.83C344.087 280.544 342.774 280.901 341.274 280.901ZM341.274 278.607C342.413 278.607 343.351 278.315 344.087 277.731C344.823 277.147 345.367 276.378 345.721 275.426C346.074 274.474 346.251 273.443 346.251 272.332C346.251 271.221 346.074 270.186 345.721 269.227C345.367 268.268 344.823 267.492 344.087 266.901C343.351 266.309 342.413 266.014 341.274 266.014C340.134 266.014 339.197 266.309 338.461 266.901C337.725 267.492 337.181 268.268 336.827 269.227C336.474 270.186 336.297 271.221 336.297 272.332C336.297 273.443 336.474 274.474 336.827 275.426C337.181 276.378 337.725 277.147 338.461 277.731C339.197 278.315 340.134 278.607 341.274 278.607ZM352.702 280.555V263.936H355.169V266.446H355.342C355.645 265.624 356.193 264.957 356.986 264.445C357.78 263.933 358.674 263.677 359.669 263.677C359.857 263.677 360.091 263.68 360.373 263.687C360.654 263.695 360.867 263.705 361.011 263.72V266.317C360.924 266.295 360.726 266.262 360.416 266.219C360.113 266.169 359.792 266.143 359.453 266.143C358.645 266.143 357.924 266.313 357.289 266.652C356.662 266.984 356.164 267.445 355.796 268.037C355.435 268.621 355.255 269.288 355.255 270.038V280.555H352.702ZM364.038 280.555V263.936H366.591V280.555H364.038ZM365.336 261.167C364.838 261.167 364.409 260.997 364.048 260.658C363.695 260.319 363.518 259.912 363.518 259.435C363.518 258.959 363.695 258.552 364.048 258.213C364.409 257.874 364.838 257.704 365.336 257.704C365.834 257.704 366.259 257.874 366.613 258.213C366.973 258.552 367.154 258.959 367.154 259.435C367.154 259.912 366.973 260.319 366.613 260.658C366.259 260.997 365.834 261.167 365.336 261.167ZM378.495 263.936V266.1H369.883V263.936H378.495ZM372.393 259.955H374.946V275.794C374.946 276.515 375.051 277.056 375.26 277.417C375.476 277.771 375.75 278.009 376.082 278.131C376.421 278.247 376.778 278.304 377.153 278.304C377.435 278.304 377.665 278.29 377.846 278.261C378.026 278.225 378.17 278.196 378.278 278.174L378.798 280.468C378.625 280.533 378.383 280.598 378.073 280.663C377.763 280.735 377.37 280.771 376.894 280.771C376.172 280.771 375.465 280.616 374.773 280.306C374.088 279.996 373.518 279.523 373.064 278.889C372.616 278.254 372.393 277.453 372.393 276.487V259.955ZM383.98 286.787C383.547 286.787 383.162 286.751 382.823 286.678C382.484 286.613 382.249 286.549 382.119 286.484L382.768 284.233C383.389 284.392 383.937 284.45 384.413 284.406C384.889 284.363 385.311 284.15 385.679 283.768C386.054 283.393 386.397 282.783 386.707 281.94L387.183 280.641L381.037 263.936H383.807L388.394 277.179H388.568L393.155 263.936H395.925L388.871 282.978C388.553 283.837 388.16 284.547 387.691 285.11C387.222 285.679 386.678 286.101 386.058 286.375C385.444 286.65 384.752 286.787 383.98 286.787Z" fill="#505050"/>
<rect x="905.413" y="48.7471" width="124.374" height="73.121" rx="12.1868" fill="#F1EDEA"/>
<path d="M920.283 96.8076V74.6497H933.569V77.03H922.966V84.5169H932.573V86.8972H922.966V96.8076H920.283ZM943.566 97.1538C941.965 97.1538 940.583 96.8004 939.422 96.0935C938.268 95.3795 937.377 94.3841 936.75 93.1074C936.129 91.8235 935.819 90.3305 935.819 88.6282C935.819 86.926 936.129 85.4257 936.75 84.1274C937.377 82.8219 938.25 81.8049 939.368 81.0764C940.493 80.3407 941.806 79.9728 943.306 79.9728C944.172 79.9728 945.026 80.1171 945.87 80.4056C946.714 80.6941 947.482 81.163 948.175 81.8121C948.867 82.4541 949.419 83.3052 949.83 84.3655C950.241 85.4257 950.447 86.7313 950.447 88.282V89.364H937.637V87.1568H947.85C947.85 86.2192 947.663 85.3825 947.288 84.6468C946.92 83.911 946.393 83.3304 945.708 82.9049C945.03 82.4793 944.229 82.2665 943.306 82.2665C942.289 82.2665 941.409 82.519 940.666 83.0239C939.931 83.5216 939.364 84.1707 938.968 84.9713C938.571 85.772 938.373 86.6303 938.373 87.5463V89.0177C938.373 90.2728 938.589 91.3367 939.022 92.2094C939.462 93.075 940.071 93.7349 940.85 94.1894C941.629 94.6366 942.534 94.8601 943.566 94.8601C944.237 94.8601 944.843 94.7664 945.383 94.5788C945.932 94.3841 946.404 94.0956 946.801 93.7133C947.198 93.3238 947.504 92.8406 947.72 92.2635L950.187 92.956C949.928 93.7926 949.491 94.5284 948.878 95.1631C948.265 95.7906 947.508 96.2811 946.606 96.6345C945.704 96.9807 944.691 97.1538 943.566 97.1538ZM954.677 96.8076V74.6497H957.231V82.8291H957.447C957.635 82.5406 957.894 82.1727 958.226 81.7256C958.565 81.2711 959.048 80.8672 959.676 80.5138C960.31 80.1532 961.169 79.9728 962.251 79.9728C963.65 79.9728 964.883 80.3227 965.951 81.0223C967.018 81.7219 967.852 82.7137 968.45 83.9976C969.049 85.2815 969.348 86.7962 969.348 88.5417C969.348 90.3016 969.049 91.8271 968.45 93.1182C967.852 94.4021 967.022 95.3975 965.962 96.1044C964.901 96.804 963.679 97.1538 962.294 97.1538C961.227 97.1538 960.372 96.9771 959.73 96.6237C959.088 96.263 958.594 95.8555 958.248 95.4011C957.901 94.9395 957.635 94.5572 957.447 94.2543H957.144V96.8076H954.677ZM957.187 88.4984C957.187 89.7535 957.371 90.8606 957.739 91.8199C958.107 92.772 958.644 93.5186 959.351 94.0595C960.058 94.5933 960.924 94.8601 961.948 94.8601C963.015 94.8601 963.906 94.5788 964.62 94.0162C965.341 93.4464 965.882 92.6819 966.243 91.7226C966.611 90.756 966.795 89.6813 966.795 88.4984C966.795 87.3299 966.615 86.2769 966.254 85.3392C965.9 84.3943 965.363 83.6478 964.642 83.0996C963.928 82.5442 963.03 82.2665 961.948 82.2665C960.909 82.2665 960.036 82.5298 959.33 83.0563C958.623 83.5756 958.089 84.3041 957.728 85.2418C957.368 86.1723 957.187 87.2578 957.187 88.4984ZM981.78 96.8076V94.8601L989.093 86.8539C989.952 85.9162 990.659 85.1012 991.214 84.4087C991.769 83.7091 992.18 83.0527 992.447 82.4396C992.721 81.8193 992.858 81.1702 992.858 80.4922C992.858 79.7132 992.671 79.0388 992.296 78.469C991.928 77.8991 991.423 77.4592 990.781 77.149C990.139 76.8388 989.418 76.6838 988.617 76.6838C987.766 76.6838 987.023 76.8605 986.389 77.2139C985.761 77.5601 985.274 78.047 984.928 78.6745C984.589 79.302 984.419 80.0377 984.419 80.8816H981.866C981.866 79.5833 982.165 78.4437 982.764 77.4628C983.363 76.4818 984.178 75.7172 985.209 75.1691C986.248 74.6209 987.413 74.3468 988.704 74.3468C990.002 74.3468 991.153 74.6209 992.155 75.1691C993.158 75.7172 993.944 76.4566 994.514 77.387C995.084 78.3175 995.369 79.3525 995.369 80.4922C995.369 81.3072 995.221 82.1042 994.925 82.8832C994.636 83.655 994.132 84.5169 993.41 85.469C992.696 86.4139 991.704 87.568 990.435 88.9312L985.458 94.2543V94.4274H995.758V96.8076H981.78ZM1007.45 97.1106C1005.82 97.1106 1004.44 96.667 1003.29 95.7798C1002.14 94.8854 1001.27 93.5907 1000.66 91.8957C1000.05 90.1934 999.75 88.1378 999.75 85.7287C999.75 83.334 1000.05 81.2892 1000.66 79.5942C1001.27 77.8919 1002.15 76.5936 1003.3 75.6992C1004.45 74.7976 1005.84 74.3468 1007.45 74.3468C1009.07 74.3468 1010.45 74.7976 1011.6 75.6992C1012.75 76.5936 1013.63 77.8919 1014.24 79.5942C1014.85 81.2892 1015.16 83.334 1015.16 85.7287C1015.16 88.1378 1014.85 90.1934 1014.25 91.8957C1013.64 93.5907 1012.77 94.8854 1011.62 95.7798C1010.47 96.667 1009.08 97.1106 1007.45 97.1106ZM1007.45 94.7303C1009.07 94.7303 1010.32 93.9513 1011.22 92.3934C1012.11 90.8354 1012.56 88.6138 1012.56 85.7287C1012.56 83.8101 1012.35 82.1764 1011.94 80.8276C1011.54 79.4788 1010.96 78.4509 1010.19 77.7441C1009.43 77.0372 1008.52 76.6838 1007.45 76.6838C1005.85 76.6838 1004.6 77.4736 1003.7 79.0532C1002.8 80.6256 1002.35 82.8508 1002.35 85.7287C1002.35 87.6473 1002.55 89.2774 1002.95 90.619C1003.36 91.9606 1003.94 92.9812 1004.69 93.6808C1005.46 94.3805 1006.38 94.7303 1007.45 94.7303Z" fill="#505050"/>
</svg>
