<svg width="1100" height="500" viewBox="0 0 1100 500" fill="none" xmlns="http://www.w3.org/2000/svg">
<rect width="1099.86" height="499.66" fill="white"/>
<rect x="48.7471" y="48.7471" width="146.242" height="146.242" rx="36.5605" fill="#E7F3EF"/>
<path d="M109.172 144.719V139.641H119.328V131.771C117.255 131.305 115.404 130.428 113.775 129.138C112.147 127.848 110.951 126.229 110.188 124.281C107.014 123.9 104.359 122.515 102.223 120.125C100.087 117.735 99.0183 114.931 99.0166 111.713V109.174C99.0166 107.778 99.5142 106.583 100.509 105.589C101.505 104.596 102.7 104.098 104.094 104.096H109.172V99.0186H134.562V104.096H139.639C141.036 104.096 142.232 104.594 143.227 105.589C144.222 106.585 144.719 107.78 144.717 109.174V111.713C144.717 114.929 143.648 117.733 141.511 120.125C139.373 122.516 136.718 123.902 133.546 124.281C132.784 126.227 131.589 127.846 129.961 129.138C128.333 130.429 126.481 131.307 124.406 131.771V139.641H134.562V144.719H109.172ZM109.172 118.822V109.174H104.094V111.713C104.094 113.321 104.56 114.771 105.491 116.062C106.422 117.354 107.649 118.274 109.172 118.822ZM134.562 118.822C136.085 118.272 137.312 117.351 138.243 116.06C139.174 114.768 139.639 113.319 139.639 111.713V109.174H134.562V118.822Z" fill="#131313"/>
<path d="M252.946 79.9942C252.66 79.12 252.284 78.3367 251.816 77.6442C251.358 76.9431 250.808 76.3459 250.168 75.8526C249.536 75.3592 248.817 74.9827 248.012 74.723C247.207 74.4634 246.325 74.3335 245.364 74.3335C243.789 74.3335 242.356 74.7403 241.066 75.5539C239.777 76.3676 238.751 77.5663 237.989 79.1503C237.228 80.7342 236.847 82.6774 236.847 84.9797C236.847 87.282 237.232 89.2252 238.002 90.8091C238.773 92.3931 239.816 93.5918 241.131 94.4054C242.447 95.2191 243.927 95.6259 245.572 95.6259C247.095 95.6259 248.437 95.3013 249.596 94.6521C250.765 93.9943 251.674 93.0682 252.323 91.8737C252.981 90.6706 253.31 89.2555 253.31 87.6283L254.296 87.836H246.299V84.9797H256.425V87.836C256.425 90.0258 255.958 91.93 255.023 93.5486C254.097 95.1671 252.816 96.4222 251.18 97.3137C249.553 98.1965 247.684 98.6379 245.572 98.6379C243.217 98.6379 241.149 98.084 239.366 96.9761C237.591 95.8682 236.206 94.2929 235.211 92.2502C234.224 90.2076 233.731 87.784 233.731 84.9797C233.731 82.8764 234.012 80.9852 234.575 79.3061C235.146 77.6183 235.951 76.1815 236.99 74.9957C238.028 73.8099 239.257 72.9011 240.677 72.2692C242.096 71.6374 243.659 71.3214 245.364 71.3214C246.766 71.3214 248.073 71.5335 249.285 71.9576C250.505 72.3731 251.591 72.966 252.544 73.7363C253.504 74.498 254.305 75.4111 254.945 76.4757C255.586 77.5317 256.027 78.7045 256.27 79.9942H252.946ZM269.626 98.6899C267.826 98.6899 266.246 98.2614 264.887 97.4045C263.537 96.5477 262.481 95.3489 261.719 93.8082C260.966 92.2676 260.59 90.4672 260.59 88.4072C260.59 86.3299 260.966 84.5166 261.719 82.9673C262.481 81.418 263.537 80.2149 264.887 79.358C266.246 78.5011 267.826 78.0727 269.626 78.0727C271.426 78.0727 273.002 78.5011 274.352 79.358C275.711 80.2149 276.767 81.418 277.52 82.9673C278.281 84.5166 278.662 86.3299 278.662 88.4072C278.662 90.4672 278.281 92.2676 277.52 93.8082C276.767 95.3489 275.711 96.5477 274.352 97.4045C273.002 98.2614 271.426 98.6899 269.626 98.6899ZM269.626 95.9375C270.994 95.9375 272.119 95.5869 273.002 94.8858C273.885 94.1847 274.538 93.2629 274.962 92.1204C275.386 90.9779 275.598 89.7402 275.598 88.4072C275.598 87.0743 275.386 85.8323 274.962 84.6811C274.538 83.5299 273.885 82.5995 273.002 81.8897C272.119 81.18 270.994 80.8251 269.626 80.8251C268.259 80.8251 267.133 81.18 266.25 81.8897C265.368 82.5995 264.714 83.5299 264.29 84.6811C263.866 85.8323 263.654 87.0743 263.654 88.4072C263.654 89.7402 263.866 90.9779 264.29 92.1204C264.714 93.2629 265.368 94.1847 266.25 94.8858C267.133 95.5869 268.259 95.9375 269.626 95.9375ZM289.208 98.7418C287.944 98.7418 286.797 98.5038 285.767 98.0277C284.737 97.543 283.919 96.8463 283.314 95.9375C282.708 95.02 282.405 93.9121 282.405 92.6138C282.405 91.4713 282.63 90.5451 283.08 89.8354C283.53 89.117 284.131 88.5544 284.884 88.1476C285.638 87.7408 286.468 87.4378 287.377 87.2388C288.295 87.031 289.217 86.8666 290.143 86.7454C291.354 86.5896 292.337 86.4728 293.09 86.3949C293.851 86.3083 294.405 86.1655 294.752 85.9664C295.107 85.7673 295.284 85.4211 295.284 84.9278V84.8239C295.284 83.5429 294.933 82.5475 294.232 81.8378C293.54 81.128 292.488 80.7732 291.077 80.7732C289.615 80.7732 288.468 81.0934 287.637 81.7339C286.806 82.3744 286.222 83.0582 285.884 83.7852L282.976 82.7466C283.495 81.5348 284.188 80.5914 285.053 79.9163C285.927 79.2325 286.88 78.7564 287.91 78.4881C288.948 78.2112 289.97 78.0727 290.974 78.0727C291.614 78.0727 292.35 78.1506 293.181 78.3064C294.02 78.4535 294.83 78.7608 295.609 79.2282C296.396 79.6956 297.05 80.401 297.569 81.3444C298.088 82.2879 298.348 83.5516 298.348 85.1355V98.2744H295.284V95.5739H295.128C294.92 96.0067 294.574 96.4698 294.09 96.9631C293.605 97.4565 292.96 97.8763 292.155 98.2225C291.35 98.5687 290.368 98.7418 289.208 98.7418ZM289.675 95.9894C290.887 95.9894 291.908 95.7514 292.739 95.2753C293.579 94.7993 294.211 94.1847 294.635 93.4317C295.068 92.6787 295.284 91.8867 295.284 91.0558V88.2514C295.154 88.4072 294.869 88.5501 294.427 88.6799C293.994 88.8011 293.492 88.9093 292.921 89.0045C292.358 89.091 291.809 89.1689 291.272 89.2382C290.744 89.2987 290.316 89.3507 289.987 89.394C289.191 89.4978 288.446 89.6666 287.754 89.9003C287.07 90.1253 286.516 90.4672 286.092 90.926C285.676 91.376 285.469 91.9906 285.469 92.7696C285.469 93.8342 285.863 94.6391 286.65 95.1844C287.446 95.7211 288.455 95.9894 289.675 95.9894ZM307.004 71.685V98.2744H303.94V71.685H307.004ZM326.742 82.7985L323.99 83.5775C323.817 83.1188 323.561 82.673 323.224 82.2403C322.895 81.7988 322.445 81.4353 321.873 81.1497C321.302 80.864 320.571 80.7212 319.679 80.7212C318.459 80.7212 317.442 81.0025 316.628 81.5651C315.823 82.1191 315.421 82.8245 315.421 83.6814C315.421 84.4431 315.698 85.0446 316.252 85.486C316.806 85.9275 317.671 86.2953 318.848 86.5896L321.808 87.3167C323.592 87.7494 324.92 88.4116 325.794 89.3031C326.669 90.1859 327.106 91.3241 327.106 92.7176C327.106 93.8602 326.777 94.8815 326.119 95.7817C325.47 96.6818 324.561 97.3916 323.392 97.9109C322.224 98.4302 320.865 98.6899 319.316 98.6899C317.282 98.6899 315.598 98.2484 314.265 97.3656C312.932 96.4827 312.088 95.1931 311.734 93.4966L314.642 92.7696C314.919 93.8428 315.442 94.6478 316.213 95.1844C316.992 95.7211 318.009 95.9894 319.264 95.9894C320.692 95.9894 321.826 95.6864 322.665 95.0806C323.514 94.466 323.938 93.7303 323.938 92.8734C323.938 92.181 323.695 91.6011 323.211 91.1337C322.726 90.6576 321.982 90.3028 320.978 90.0691L317.654 89.2901C315.828 88.8573 314.486 88.1865 313.629 87.2777C312.781 86.3602 312.357 85.2134 312.357 83.8372C312.357 82.712 312.673 81.7166 313.305 80.8511C313.945 79.9855 314.815 79.3061 315.914 78.8127C317.022 78.3194 318.277 78.0727 319.679 78.0727C321.653 78.0727 323.202 78.5054 324.327 79.371C325.461 80.2365 326.266 81.379 326.742 82.7985Z" fill="#505050"/>
<path d="M235.306 165.461V134.44H245.788C248.211 134.44 250.201 134.854 251.756 135.682C253.311 136.5 254.462 137.626 255.209 139.06C255.957 140.494 256.33 142.124 256.33 143.952C256.33 145.78 255.957 147.401 255.209 148.814C254.462 150.228 253.316 151.339 251.771 152.147C250.226 152.944 248.252 153.343 245.849 153.343H237.366V149.95H245.727C247.383 149.95 248.716 149.708 249.726 149.223C250.746 148.739 251.483 148.052 251.938 147.163C252.402 146.265 252.634 145.194 252.634 143.952C252.634 142.71 252.402 141.625 251.938 140.696C251.473 139.767 250.731 139.05 249.711 138.545C248.691 138.03 247.343 137.772 245.667 137.772H239.063V165.461H235.306ZM249.908 151.526L257.542 165.461H253.18L245.667 151.526H249.908ZM271.307 165.946C269.206 165.946 267.364 165.446 265.778 164.446C264.203 163.446 262.971 162.048 262.082 160.25C261.204 158.453 260.765 156.353 260.765 153.949C260.765 151.526 261.204 149.41 262.082 147.603C262.971 145.795 264.203 144.391 265.778 143.392C267.364 142.392 269.206 141.892 271.307 141.892C273.407 141.892 275.245 142.392 276.82 143.392C278.406 144.391 279.638 145.795 280.516 147.603C281.405 149.41 281.849 151.526 281.849 153.949C281.849 156.353 281.405 158.453 280.516 160.25C279.638 162.048 278.406 163.446 276.82 164.446C275.245 165.446 273.407 165.946 271.307 165.946ZM271.307 162.734C272.902 162.734 274.215 162.326 275.245 161.508C276.275 160.69 277.037 159.614 277.532 158.281C278.027 156.948 278.274 155.504 278.274 153.949C278.274 152.394 278.027 150.945 277.532 149.602C277.037 148.259 276.275 147.173 275.245 146.345C274.215 145.517 272.902 145.103 271.307 145.103C269.711 145.103 268.399 145.517 267.369 146.345C266.339 147.173 265.576 148.259 265.081 149.602C264.587 150.945 264.339 152.394 264.339 153.949C264.339 155.504 264.587 156.948 265.081 158.281C265.576 159.614 266.339 160.69 267.369 161.508C268.399 162.326 269.711 162.734 271.307 162.734ZM290.881 151.465V165.461H287.306V142.195H290.759V145.83H291.062C291.608 144.649 292.436 143.7 293.546 142.983C294.657 142.256 296.091 141.892 297.848 141.892C299.423 141.892 300.802 142.215 301.983 142.862C303.165 143.498 304.084 144.467 304.74 145.77C305.396 147.062 305.725 148.698 305.725 150.677V165.461H302.15V150.92C302.15 149.092 301.675 147.668 300.726 146.648C299.777 145.618 298.474 145.103 296.818 145.103C295.677 145.103 294.657 145.351 293.758 145.846C292.87 146.34 292.168 147.062 291.653 148.012C291.138 148.961 290.881 150.112 290.881 151.465ZM319.103 166.006C317.629 166.006 316.291 165.729 315.089 165.173C313.888 164.608 312.933 163.795 312.226 162.734C311.52 161.664 311.166 160.372 311.166 158.857C311.166 157.524 311.429 156.443 311.954 155.615C312.479 154.777 313.181 154.121 314.059 153.646C314.938 153.172 315.907 152.818 316.967 152.586C318.038 152.344 319.113 152.152 320.194 152.01C321.607 151.829 322.754 151.692 323.632 151.601C324.521 151.5 325.167 151.334 325.571 151.102C325.985 150.869 326.192 150.465 326.192 149.89V149.769C326.192 148.274 325.783 147.113 324.965 146.285C324.157 145.457 322.93 145.043 321.284 145.043C319.578 145.043 318.24 145.416 317.27 146.164C316.301 146.911 315.619 147.709 315.226 148.557L311.833 147.345C312.438 145.931 313.246 144.831 314.256 144.043C315.276 143.245 316.387 142.69 317.588 142.377C318.8 142.054 319.992 141.892 321.163 141.892C321.91 141.892 322.769 141.983 323.738 142.165C324.718 142.337 325.662 142.695 326.571 143.24C327.49 143.786 328.252 144.609 328.858 145.709C329.464 146.81 329.767 148.284 329.767 150.132V165.461H326.192V162.31H326.01C325.768 162.815 325.364 163.356 324.798 163.931C324.233 164.507 323.481 164.996 322.541 165.4C321.602 165.804 320.456 166.006 319.103 166.006ZM319.648 162.795C321.062 162.795 322.254 162.517 323.223 161.962C324.203 161.407 324.94 160.69 325.435 159.811C325.939 158.933 326.192 158.009 326.192 157.039V153.767C326.04 153.949 325.707 154.116 325.192 154.267C324.687 154.409 324.102 154.535 323.435 154.646C322.779 154.747 322.138 154.838 321.511 154.919C320.896 154.989 320.396 155.05 320.012 155.1C319.083 155.222 318.215 155.418 317.407 155.691C316.609 155.954 315.963 156.353 315.468 156.888C314.983 157.413 314.741 158.13 314.741 159.039C314.741 160.281 315.2 161.22 316.119 161.856C317.048 162.482 318.225 162.795 319.648 162.795ZM347.742 165.461V162.734L364.465 137.772H347.561V134.44H368.948V137.166L352.226 162.129H369.13V165.461H347.742ZM384.701 165.946C382.459 165.946 380.525 165.451 378.9 164.461C377.284 163.462 376.037 162.068 375.158 160.281C374.29 158.483 373.856 156.393 373.856 154.01C373.856 151.627 374.29 149.526 375.158 147.709C376.037 145.881 377.259 144.457 378.824 143.437C380.399 142.407 382.237 141.892 384.337 141.892C385.549 141.892 386.746 142.094 387.927 142.498C389.109 142.902 390.184 143.558 391.154 144.467C392.123 145.366 392.895 146.558 393.471 148.042C394.047 149.526 394.334 151.354 394.334 153.525V155.04H376.4V151.95H390.699C390.699 150.637 390.437 149.466 389.911 148.436C389.396 147.406 388.659 146.593 387.7 145.997C386.751 145.401 385.63 145.103 384.337 145.103C382.914 145.103 381.682 145.457 380.642 146.164C379.612 146.86 378.819 147.769 378.263 148.89C377.708 150.011 377.43 151.213 377.43 152.495V154.555C377.43 156.312 377.733 157.802 378.339 159.023C378.955 160.235 379.808 161.159 380.899 161.795C381.99 162.421 383.257 162.734 384.701 162.734C385.64 162.734 386.488 162.603 387.246 162.341C388.013 162.068 388.674 161.664 389.23 161.129C389.785 160.584 390.214 159.907 390.517 159.099L393.971 160.069C393.607 161.24 392.996 162.27 392.138 163.159C391.28 164.037 390.219 164.724 388.957 165.219C387.695 165.703 386.276 165.946 384.701 165.946ZM399.772 174.186V142.195H403.226V145.891H403.65C403.912 145.487 404.276 144.972 404.74 144.346C405.215 143.71 405.892 143.144 406.77 142.65C407.659 142.145 408.86 141.892 410.375 141.892C412.334 141.892 414.061 142.382 415.555 143.361C417.05 144.341 418.216 145.729 419.054 147.527C419.892 149.324 420.311 151.445 420.311 153.889C420.311 156.353 419.892 158.488 419.054 160.296C418.216 162.093 417.055 163.487 415.57 164.476C414.086 165.456 412.374 165.946 410.436 165.946C408.941 165.946 407.745 165.698 406.846 165.203C405.947 164.699 405.255 164.128 404.771 163.492C404.286 162.846 403.912 162.31 403.65 161.886H403.347V174.186H399.772ZM403.286 153.828C403.286 155.585 403.544 157.135 404.059 158.478C404.574 159.811 405.326 160.856 406.316 161.614C407.305 162.361 408.517 162.734 409.951 162.734C411.445 162.734 412.693 162.341 413.692 161.553C414.702 160.755 415.459 159.685 415.964 158.342C416.479 156.989 416.737 155.484 416.737 153.828C416.737 152.192 416.484 150.718 415.979 149.405C415.485 148.082 414.732 147.037 413.723 146.27C412.723 145.492 411.466 145.103 409.951 145.103C408.497 145.103 407.275 145.472 406.285 146.209C405.296 146.936 404.549 147.956 404.044 149.269C403.539 150.571 403.286 152.091 403.286 153.828ZM425.764 165.461V142.195H429.218V145.709H429.46C429.884 144.558 430.652 143.624 431.763 142.907C432.873 142.19 434.126 141.832 435.519 141.832C435.782 141.832 436.11 141.837 436.504 141.847C436.897 141.857 437.195 141.872 437.397 141.892V145.528C437.276 145.497 436.998 145.452 436.564 145.391C436.14 145.321 435.691 145.285 435.216 145.285C434.085 145.285 433.075 145.522 432.187 145.997C431.308 146.462 430.611 147.108 430.096 147.936C429.592 148.754 429.339 149.688 429.339 150.738V165.461H425.764ZM441.635 165.461V142.195H445.209V165.461H441.635ZM443.452 138.318C442.755 138.318 442.155 138.08 441.65 137.606C441.155 137.131 440.908 136.561 440.908 135.894C440.908 135.228 441.155 134.657 441.65 134.182C442.155 133.708 442.755 133.471 443.452 133.471C444.149 133.471 444.745 133.708 445.24 134.182C445.744 134.657 445.997 135.228 445.997 135.894C445.997 136.561 445.744 137.131 445.24 137.606C444.745 138.08 444.149 138.318 443.452 138.318Z" fill="#2A2828"/>
<rect x="48.7471" y="231.55" width="317.873" height="220.681" rx="36.5605" fill="#F7F7F7"/>
<path d="M175.683 278.333V275.952H192.301V278.333H185.334V298.11H182.651V278.333H175.683ZM198.725 298.5C197.672 298.5 196.717 298.301 195.858 297.905C195 297.501 194.318 296.92 193.813 296.163C193.308 295.398 193.056 294.475 193.056 293.393C193.056 292.441 193.244 291.669 193.619 291.078C193.994 290.479 194.495 290.01 195.122 289.671C195.75 289.332 196.442 289.08 197.2 288.914C197.964 288.741 198.733 288.604 199.504 288.503C200.514 288.373 201.333 288.276 201.96 288.211C202.595 288.139 203.057 288.02 203.345 287.854C203.641 287.688 203.789 287.399 203.789 286.988V286.902C203.789 285.834 203.497 285.005 202.912 284.413C202.335 283.822 201.459 283.526 200.283 283.526C199.064 283.526 198.109 283.793 197.416 284.327C196.724 284.86 196.237 285.43 195.956 286.036L193.532 285.171C193.965 284.161 194.542 283.375 195.263 282.812C195.992 282.242 196.785 281.845 197.643 281.622C198.509 281.391 199.36 281.276 200.197 281.276C200.73 281.276 201.344 281.34 202.036 281.47C202.736 281.593 203.41 281.849 204.059 282.238C204.716 282.628 205.26 283.216 205.693 284.002C206.126 284.788 206.342 285.841 206.342 287.161V298.11H203.789V295.86H203.659C203.486 296.221 203.197 296.606 202.793 297.018C202.389 297.429 201.852 297.779 201.181 298.067C200.51 298.356 199.692 298.5 198.725 298.5ZM199.115 296.206C200.125 296.206 200.976 296.008 201.668 295.611C202.368 295.214 202.894 294.702 203.248 294.075C203.608 293.447 203.789 292.787 203.789 292.095V289.758C203.681 289.888 203.443 290.007 203.075 290.115C202.714 290.216 202.296 290.306 201.82 290.385C201.351 290.458 200.893 290.522 200.446 290.58C200.006 290.631 199.649 290.674 199.374 290.71C198.711 290.797 198.091 290.937 197.514 291.132C196.944 291.319 196.482 291.604 196.129 291.987C195.782 292.362 195.609 292.874 195.609 293.523C195.609 294.41 195.938 295.081 196.594 295.535C197.257 295.983 198.098 296.206 199.115 296.206ZM222.774 285.214L220.48 285.863C220.336 285.481 220.123 285.109 219.842 284.749C219.568 284.381 219.193 284.078 218.717 283.84C218.241 283.602 217.631 283.483 216.888 283.483C215.871 283.483 215.024 283.717 214.346 284.186C213.675 284.648 213.339 285.235 213.339 285.949C213.339 286.584 213.57 287.086 214.032 287.453C214.494 287.821 215.215 288.128 216.196 288.373L218.663 288.979C220.148 289.34 221.256 289.891 221.984 290.634C222.713 291.37 223.077 292.318 223.077 293.48C223.077 294.432 222.803 295.283 222.255 296.033C221.714 296.783 220.956 297.375 219.982 297.807C219.009 298.24 217.876 298.457 216.585 298.457C214.89 298.457 213.487 298.089 212.377 297.353C211.266 296.617 210.562 295.543 210.267 294.129L212.69 293.523C212.921 294.417 213.357 295.088 213.999 295.535C214.649 295.983 215.496 296.206 216.542 296.206C217.732 296.206 218.677 295.954 219.377 295.449C220.083 294.937 220.437 294.324 220.437 293.61C220.437 293.033 220.235 292.549 219.831 292.16C219.427 291.763 218.807 291.467 217.97 291.273L215.2 290.623C213.678 290.263 212.56 289.704 211.846 288.946C211.14 288.182 210.786 287.226 210.786 286.079C210.786 285.142 211.049 284.312 211.576 283.591C212.11 282.87 212.835 282.303 213.751 281.892C214.674 281.481 215.72 281.276 216.888 281.276C218.533 281.276 219.824 281.636 220.761 282.357C221.706 283.079 222.377 284.031 222.774 285.214ZM229.301 292.052L229.257 288.892H229.777L237.047 281.492H240.206L232.46 289.325H232.243L229.301 292.052ZM226.92 298.11V275.952H229.474V298.11H226.92ZM237.48 298.11L230.988 289.888L232.806 288.113L240.726 298.11H237.48Z" fill="#505050"/>
<path d="M170.472 356.355V400.671H165.106V361.981H164.846L154.027 369.165V363.712L165.106 356.355H170.472ZM197.672 401.277C194.412 401.277 191.635 400.39 189.341 398.615C187.047 396.826 185.295 394.237 184.083 390.847C182.871 387.443 182.265 383.331 182.265 378.513C182.265 373.724 182.871 369.634 184.083 366.244C185.309 362.84 187.069 360.243 189.363 358.454C191.671 356.651 194.44 355.749 197.672 355.749C200.903 355.749 203.666 356.651 205.959 358.454C208.267 360.243 210.027 362.84 211.239 366.244C212.465 369.634 213.078 373.724 213.078 378.513C213.078 383.331 212.473 387.443 211.261 390.847C210.049 394.237 208.296 396.826 206.003 398.615C203.709 400.39 200.932 401.277 197.672 401.277ZM197.672 396.516C200.903 396.516 203.413 394.958 205.202 391.842C206.991 388.726 207.885 384.283 207.885 378.513C207.885 374.676 207.474 371.408 206.652 368.711C205.844 366.013 204.675 363.958 203.146 362.544C201.632 361.13 199.807 360.423 197.672 360.423C194.469 360.423 191.966 362.003 190.163 365.162C188.36 368.307 187.458 372.757 187.458 378.513C187.458 382.35 187.862 385.61 188.67 388.294C189.478 390.977 190.639 393.018 192.154 394.417C193.683 395.817 195.522 396.516 197.672 396.516Z" fill="#2A2828"/>
<path d="M226.884 377.474L219.743 404.003H217.406L224.547 377.474H226.884Z" fill="#2A2828" fill-opacity="0.5"/>
<path d="M229.867 400.671V398.723L237.181 390.717C238.039 389.779 238.746 388.964 239.302 388.272C239.857 387.572 240.268 386.916 240.535 386.303C240.809 385.683 240.946 385.033 240.946 384.355C240.946 383.576 240.759 382.902 240.384 382.332C240.016 381.762 239.511 381.322 238.869 381.012C238.227 380.702 237.506 380.547 236.705 380.547C235.854 380.547 235.111 380.724 234.476 381.077C233.849 381.423 233.362 381.91 233.016 382.538C232.677 383.165 232.507 383.901 232.507 384.745H229.954C229.954 383.447 230.253 382.307 230.852 381.326C231.45 380.345 232.266 379.581 233.297 379.032C234.336 378.484 235.5 378.21 236.792 378.21C238.09 378.21 239.24 378.484 240.243 379.032C241.246 379.581 242.032 380.32 242.602 381.25C243.171 382.181 243.456 383.216 243.456 384.355C243.456 385.17 243.308 385.968 243.013 386.746C242.724 387.518 242.219 388.38 241.498 389.332C240.784 390.277 239.792 391.431 238.523 392.794L233.546 398.118V398.291H243.846V400.671H229.867ZM255.541 400.974C253.911 400.974 252.523 400.53 251.376 399.643C250.229 398.749 249.353 397.454 248.747 395.759C248.141 394.057 247.838 392.001 247.838 389.592C247.838 387.197 248.141 385.152 248.747 383.457C249.36 381.755 250.24 380.457 251.387 379.562C252.541 378.661 253.926 378.21 255.541 378.21C257.157 378.21 258.538 378.661 259.685 379.562C260.839 380.457 261.719 381.755 262.325 383.457C262.938 385.152 263.245 387.197 263.245 389.592C263.245 392.001 262.942 394.057 262.336 395.759C261.73 397.454 260.854 398.749 259.707 399.643C258.56 400.53 257.171 400.974 255.541 400.974ZM255.541 398.594C257.157 398.594 258.412 397.815 259.306 396.257C260.201 394.699 260.648 392.477 260.648 389.592C260.648 387.673 260.442 386.04 260.031 384.691C259.627 383.342 259.043 382.314 258.279 381.607C257.521 380.9 256.609 380.547 255.541 380.547C253.94 380.547 252.689 381.337 251.787 382.916C250.885 384.489 250.435 386.714 250.435 389.592C250.435 391.511 250.637 393.141 251.041 394.482C251.444 395.824 252.025 396.844 252.782 397.544C253.547 398.244 254.467 398.594 255.541 398.594Z" fill="#2A2828" fill-opacity="0.4"/>
<rect x="390.994" y="231.55" width="317.873" height="220.681" rx="36.5605" fill="#F7F7F7"/>
<path d="M515.907 278.333V275.952H532.525V278.333H525.558V298.11H522.874V278.333H515.907ZM536.32 298.11V281.492H538.873V298.11H536.32ZM537.618 278.722C537.121 278.722 536.692 278.553 536.331 278.214C535.977 277.875 535.801 277.467 535.801 276.991C535.801 276.515 535.977 276.108 536.331 275.769C536.692 275.43 537.121 275.26 537.618 275.26C538.116 275.26 538.542 275.43 538.895 275.769C539.256 276.108 539.436 276.515 539.436 276.991C539.436 277.467 539.256 277.875 538.895 278.214C538.542 278.553 538.116 278.722 537.618 278.722ZM543.55 298.11V281.492H546.017V284.089H546.233C546.579 283.201 547.138 282.513 547.91 282.022C548.682 281.524 549.609 281.276 550.691 281.276C551.787 281.276 552.7 281.524 553.428 282.022C554.164 282.513 554.737 283.201 555.148 284.089H555.321C555.747 283.23 556.385 282.549 557.236 282.044C558.088 281.532 559.108 281.276 560.298 281.276C561.784 281.276 563 281.741 563.944 282.671C564.889 283.594 565.362 285.033 565.362 286.988V298.11H562.808V286.988C562.808 285.762 562.473 284.886 561.802 284.359C561.131 283.833 560.342 283.569 559.433 283.569C558.264 283.569 557.359 283.923 556.717 284.63C556.075 285.329 555.754 286.216 555.754 287.291V298.11H553.158V286.728C553.158 285.784 552.851 285.023 552.238 284.446C551.625 283.861 550.835 283.569 549.869 283.569C549.205 283.569 548.585 283.746 548.008 284.099C547.438 284.453 546.976 284.943 546.623 285.571C546.277 286.191 546.103 286.909 546.103 287.724V298.11H543.55ZM576.998 298.457C575.397 298.457 574.015 298.103 572.854 297.396C571.7 296.682 570.809 295.687 570.182 294.41C569.561 293.126 569.251 291.633 569.251 289.931C569.251 288.229 569.561 286.728 570.182 285.43C570.809 284.125 571.682 283.108 572.8 282.379C573.925 281.643 575.238 281.276 576.738 281.276C577.604 281.276 578.458 281.42 579.302 281.708C580.146 281.997 580.914 282.466 581.607 283.115C582.299 283.757 582.851 284.608 583.262 285.668C583.673 286.728 583.879 288.034 583.879 289.585V290.667H571.069V288.46H581.282C581.282 287.522 581.095 286.685 580.72 285.949C580.352 285.214 579.825 284.633 579.14 284.208C578.462 283.782 577.661 283.569 576.738 283.569C575.721 283.569 574.841 283.822 574.098 284.327C573.363 284.824 572.796 285.473 572.4 286.274C572.003 287.075 571.805 287.933 571.805 288.849V290.32C571.805 291.576 572.021 292.639 572.454 293.512C572.894 294.378 573.503 295.038 574.282 295.492C575.061 295.939 575.966 296.163 576.998 296.163C577.669 296.163 578.275 296.069 578.815 295.882C579.364 295.687 579.836 295.398 580.233 295.016C580.63 294.627 580.936 294.143 581.152 293.566L583.619 294.259C583.36 295.095 582.923 295.831 582.31 296.466C581.697 297.093 580.94 297.584 580.038 297.937C579.136 298.283 578.123 298.457 576.998 298.457Z" fill="#505050"/>
<path d="M485.718 356.355V400.671H480.352V361.981H480.092L469.273 369.165V363.712L480.352 356.355H485.718ZM512.918 401.277C509.658 401.277 506.881 400.39 504.587 398.615C502.293 396.826 500.541 394.237 499.329 390.847C498.117 387.443 497.511 383.331 497.511 378.513C497.511 373.724 498.117 369.634 499.329 366.244C500.555 362.84 502.315 360.243 504.609 358.454C506.917 356.651 509.687 355.749 512.918 355.749C516.149 355.749 518.912 356.651 521.206 358.454C523.514 360.243 525.274 362.84 526.485 366.244C527.712 369.634 528.325 373.724 528.325 378.513C528.325 383.331 527.719 387.443 526.507 390.847C525.295 394.237 523.543 396.826 521.249 398.615C518.955 400.39 516.178 401.277 512.918 401.277ZM512.918 396.516C516.149 396.516 518.659 394.958 520.448 391.842C522.237 388.726 523.131 384.283 523.131 378.513C523.131 374.676 522.72 371.408 521.898 368.711C521.09 366.013 519.922 363.958 518.393 362.544C516.878 361.13 515.053 360.423 512.918 360.423C509.715 360.423 507.213 362.003 505.409 365.162C503.606 368.307 502.705 372.757 502.705 378.513C502.705 382.35 503.109 385.61 503.916 388.294C504.724 390.977 505.885 393.018 507.4 394.417C508.929 395.817 510.769 396.516 512.918 396.516ZM541.741 380.677V400.671H536.634V356.355H541.741V372.627H542.173C542.952 370.911 544.121 369.547 545.679 368.538C547.251 367.513 549.343 367.001 551.954 367.001C554.219 367.001 556.202 367.456 557.905 368.365C559.607 369.259 560.927 370.637 561.864 372.498C562.816 374.344 563.293 376.695 563.293 379.552V400.671H558.186V379.898C558.186 377.258 557.501 375.217 556.13 373.774C554.774 372.317 552.892 371.589 550.483 371.589C548.809 371.589 547.309 371.942 545.982 372.649C544.669 373.356 543.63 374.387 542.866 375.743C542.116 377.099 541.741 378.744 541.741 380.677Z" fill="#2A2828"/>
<path d="M578.131 377.474L570.99 404.003H568.653L575.794 377.474H578.131ZM581.115 400.671V398.723L588.428 390.717C589.287 389.779 589.994 388.964 590.549 388.272C591.104 387.572 591.516 386.916 591.782 386.303C592.056 385.683 592.194 385.033 592.194 384.355C592.194 383.576 592.006 382.902 591.631 382.332C591.263 381.762 590.758 381.322 590.116 381.012C589.474 380.702 588.753 380.547 587.952 380.547C587.101 380.547 586.358 380.724 585.724 381.077C585.096 381.423 584.609 381.91 584.263 382.538C583.924 383.165 583.754 383.901 583.754 384.745H581.201C581.201 383.447 581.5 382.307 582.099 381.326C582.698 380.345 583.513 379.581 584.544 379.032C585.583 378.484 586.748 378.21 588.039 378.21C589.337 378.21 590.488 378.484 591.49 379.032C592.493 379.581 593.279 380.32 593.849 381.25C594.419 382.181 594.704 383.216 594.704 384.355C594.704 385.17 594.556 385.968 594.26 386.746C593.971 387.518 593.467 388.38 592.745 389.332C592.031 390.277 591.039 391.431 589.77 392.794L584.793 398.118V398.291H595.093V400.671H581.115ZM606.789 400.974C605.159 400.974 603.77 400.53 602.623 399.643C601.476 398.749 600.6 397.454 599.994 395.759C599.388 394.057 599.085 392.001 599.085 389.592C599.085 387.197 599.388 385.152 599.994 383.457C600.607 381.755 601.487 380.457 602.634 379.562C603.788 378.661 605.173 378.21 606.789 378.21C608.404 378.21 609.786 378.661 610.932 379.562C612.087 380.457 612.966 381.755 613.572 383.457C614.185 385.152 614.492 387.197 614.492 389.592C614.492 392.001 614.189 394.057 613.583 395.759C612.977 397.454 612.101 398.749 610.954 399.643C609.807 400.53 608.419 400.974 606.789 400.974ZM606.789 398.594C608.404 398.594 609.659 397.815 610.554 396.257C611.448 394.699 611.895 392.477 611.895 389.592C611.895 387.673 611.69 386.04 611.279 384.691C610.875 383.342 610.291 382.314 609.526 381.607C608.769 380.9 607.856 380.547 606.789 380.547C605.187 380.547 603.936 381.337 603.034 382.916C602.133 384.489 601.682 386.714 601.682 389.592C601.682 391.511 601.884 393.141 602.288 394.482C602.692 395.824 603.272 396.844 604.03 397.544C604.794 398.244 605.714 398.594 606.789 398.594ZM621.2 390.674V400.671H618.647V378.513H621.2V386.649H621.416C621.806 385.791 622.39 385.109 623.169 384.604C623.955 384.092 625.001 383.836 626.307 383.836C627.439 383.836 628.431 384.063 629.282 384.518C630.133 384.965 630.793 385.654 631.262 386.584C631.738 387.507 631.976 388.683 631.976 390.111V400.671H629.423V390.284C629.423 388.964 629.08 387.944 628.395 387.223C627.717 386.494 626.776 386.13 625.571 386.13C624.734 386.13 623.984 386.307 623.321 386.66C622.664 387.013 622.145 387.529 621.763 388.207C621.388 388.885 621.2 389.707 621.2 390.674Z" fill="#2A2828" fill-opacity="0.4"/>
<rect x="733.24" y="231.55" width="317.873" height="220.681" rx="36.5605" fill="#F7F7F7"/>
<path d="M836.351 298.11V275.952H843.838C845.576 275.952 846.997 276.266 848.1 276.894C849.211 277.514 850.034 278.354 850.567 279.415C851.101 280.475 851.368 281.658 851.368 282.963C851.368 284.269 851.101 285.455 850.567 286.523C850.041 287.59 849.226 288.442 848.122 289.076C847.019 289.704 845.605 290.018 843.881 290.018H838.515V287.637H843.794C844.985 287.637 845.94 287.432 846.661 287.021C847.383 286.609 847.906 286.054 848.23 285.354C848.562 284.648 848.728 283.851 848.728 282.963C848.728 282.076 848.562 281.283 848.23 280.583C847.906 279.883 847.379 279.335 846.651 278.939C845.922 278.535 844.956 278.333 843.751 278.333H839.034V298.11H836.351ZM855.344 298.11V281.492H857.811V284.002H857.984C858.287 283.18 858.835 282.513 859.628 282C860.422 281.488 861.316 281.232 862.312 281.232C862.499 281.232 862.734 281.236 863.015 281.243C863.296 281.25 863.509 281.261 863.653 281.276V283.872C863.567 283.851 863.368 283.818 863.058 283.775C862.755 283.724 862.434 283.699 862.095 283.699C861.287 283.699 860.566 283.869 859.931 284.208C859.304 284.539 858.806 285.001 858.438 285.592C858.078 286.177 857.897 286.844 857.897 287.594V298.11H855.344ZM872.925 298.457C871.425 298.457 870.109 298.1 868.976 297.385C867.851 296.671 866.971 295.672 866.336 294.389C865.709 293.105 865.395 291.604 865.395 289.888C865.395 288.157 865.709 286.646 866.336 285.354C866.971 284.063 867.851 283.061 868.976 282.347C870.109 281.633 871.425 281.276 872.925 281.276C874.426 281.276 875.738 281.633 876.863 282.347C877.996 283.061 878.876 284.063 879.503 285.354C880.138 286.646 880.455 288.157 880.455 289.888C880.455 291.604 880.138 293.105 879.503 294.389C878.876 295.672 877.996 296.671 876.863 297.385C875.738 298.1 874.426 298.457 872.925 298.457ZM872.925 296.163C874.065 296.163 875.003 295.871 875.738 295.287C876.474 294.702 877.019 293.934 877.372 292.982C877.725 292.03 877.902 290.998 877.902 289.888C877.902 288.777 877.725 287.742 877.372 286.783C877.019 285.823 876.474 285.048 875.738 284.456C875.003 283.865 874.065 283.569 872.925 283.569C871.786 283.569 870.848 283.865 870.112 284.456C869.377 285.048 868.832 285.823 868.479 286.783C868.125 287.742 867.948 288.777 867.948 289.888C867.948 290.998 868.125 292.03 868.479 292.982C868.832 293.934 869.377 294.702 870.112 295.287C870.848 295.871 871.786 296.163 872.925 296.163ZM884.353 281.492H886.906V299.322C886.906 300.346 886.73 301.234 886.376 301.984C886.03 302.734 885.504 303.314 884.797 303.726C884.097 304.137 883.214 304.342 882.146 304.342C882.059 304.342 881.973 304.342 881.886 304.342C881.8 304.342 881.713 304.342 881.627 304.342V301.962C881.713 301.962 881.793 301.962 881.865 301.962C881.937 301.962 882.016 301.962 882.103 301.962C882.882 301.962 883.452 301.731 883.812 301.27C884.173 300.815 884.353 300.166 884.353 299.322V281.492ZM885.608 278.722C885.11 278.722 884.681 278.553 884.321 278.214C883.967 277.875 883.791 277.467 883.791 276.991C883.791 276.515 883.967 276.108 884.321 275.769C884.681 275.43 885.11 275.26 885.608 275.26C886.106 275.26 886.531 275.43 886.885 275.769C887.245 276.108 887.426 276.515 887.426 276.991C887.426 277.467 887.245 277.875 886.885 278.214C886.531 278.553 886.106 278.722 885.608 278.722ZM898.551 298.457C896.949 298.457 895.568 298.103 894.407 297.396C893.253 296.682 892.362 295.687 891.735 294.41C891.114 293.126 890.804 291.633 890.804 289.931C890.804 288.229 891.114 286.728 891.735 285.43C892.362 284.125 893.235 283.108 894.353 282.379C895.478 281.643 896.791 281.276 898.291 281.276C899.157 281.276 900.011 281.42 900.855 281.708C901.699 281.997 902.467 282.466 903.16 283.115C903.852 283.757 904.404 284.608 904.815 285.668C905.226 286.728 905.432 288.034 905.432 289.585V290.667H892.622V288.46H902.835C902.835 287.522 902.648 286.685 902.273 285.949C901.905 285.214 901.378 284.633 900.693 284.208C900.015 283.782 899.214 283.569 898.291 283.569C897.274 283.569 896.394 283.822 895.651 284.327C894.915 284.824 894.349 285.473 893.953 286.274C893.556 287.075 893.357 287.933 893.357 288.849V290.32C893.357 291.576 893.574 292.639 894.007 293.512C894.447 294.378 895.056 295.038 895.835 295.492C896.614 295.939 897.519 296.163 898.551 296.163C899.222 296.163 899.827 296.069 900.368 295.882C900.917 295.687 901.389 295.398 901.786 295.016C902.182 294.627 902.489 294.143 902.705 293.566L905.172 294.259C904.912 295.095 904.476 295.831 903.863 296.466C903.25 297.093 902.493 297.584 901.591 297.937C900.689 298.283 899.676 298.457 898.551 298.457ZM916.067 298.457C914.509 298.457 913.168 298.089 912.042 297.353C910.917 296.617 910.052 295.604 909.446 294.313C908.84 293.022 908.537 291.547 908.537 289.888C908.537 288.2 908.847 286.71 909.467 285.419C910.095 284.121 910.968 283.108 912.086 282.379C913.211 281.643 914.524 281.276 916.024 281.276C917.192 281.276 918.245 281.492 919.183 281.925C920.121 282.357 920.889 282.963 921.488 283.742C922.086 284.521 922.458 285.43 922.602 286.469H920.049C919.854 285.711 919.421 285.041 918.75 284.456C918.087 283.865 917.192 283.569 916.067 283.569C915.072 283.569 914.199 283.829 913.449 284.348C912.706 284.86 912.125 285.585 911.707 286.523C911.296 287.453 911.09 288.546 911.09 289.801C911.09 291.085 911.292 292.203 911.696 293.155C912.107 294.107 912.684 294.847 913.427 295.373C914.177 295.9 915.057 296.163 916.067 296.163C916.731 296.163 917.333 296.047 917.874 295.817C918.415 295.586 918.873 295.254 919.248 294.821C919.623 294.389 919.89 293.869 920.049 293.263H922.602C922.458 294.244 922.101 295.128 921.531 295.914C920.968 296.693 920.222 297.313 919.291 297.775C918.368 298.229 917.293 298.457 916.067 298.457ZM933.562 281.492V283.656H924.95V281.492H933.562ZM927.46 277.51H930.013V293.35C930.013 294.071 930.118 294.612 930.327 294.973C930.543 295.326 930.817 295.564 931.149 295.687C931.488 295.802 931.845 295.86 932.22 295.86C932.502 295.86 932.732 295.846 932.913 295.817C933.093 295.781 933.237 295.752 933.346 295.73L933.865 298.024C933.692 298.089 933.45 298.154 933.14 298.219C932.83 298.291 932.437 298.327 931.961 298.327C931.239 298.327 930.532 298.172 929.84 297.862C929.155 297.551 928.585 297.079 928.131 296.444C927.683 295.809 927.46 295.009 927.46 294.042V277.51ZM948.877 285.214L946.583 285.863C946.439 285.481 946.226 285.109 945.945 284.749C945.67 284.381 945.295 284.078 944.819 283.84C944.343 283.602 943.734 283.483 942.991 283.483C941.974 283.483 941.126 283.717 940.448 284.186C939.778 284.648 939.442 285.235 939.442 285.949C939.442 286.584 939.673 287.086 940.135 287.453C940.596 287.821 941.317 288.128 942.298 288.373L944.765 288.979C946.251 289.34 947.358 289.891 948.087 290.634C948.815 291.37 949.18 292.318 949.18 293.48C949.18 294.432 948.905 295.283 948.357 296.033C947.816 296.783 947.059 297.375 946.085 297.807C945.111 298.24 943.979 298.457 942.688 298.457C940.993 298.457 939.59 298.089 938.479 297.353C937.368 296.617 936.665 295.543 936.369 294.129L938.793 293.523C939.024 294.417 939.46 295.088 940.102 295.535C940.751 295.983 941.599 296.206 942.645 296.206C943.835 296.206 944.78 295.954 945.479 295.449C946.186 294.937 946.54 294.324 946.54 293.61C946.54 293.033 946.338 292.549 945.934 292.16C945.53 291.763 944.909 291.467 944.073 291.273L941.303 290.623C939.781 290.263 938.663 289.704 937.949 288.946C937.242 288.182 936.889 287.226 936.889 286.079C936.889 285.142 937.152 284.312 937.679 283.591C938.212 282.87 938.937 282.303 939.853 281.892C940.777 281.481 941.822 281.276 942.991 281.276C944.635 281.276 945.927 281.636 946.864 282.357C947.809 283.079 948.48 284.031 948.877 285.214Z" fill="#505050"/>
<path d="M870.045 401.277C867.506 401.277 865.219 400.772 863.185 399.762C861.151 398.752 859.521 397.367 858.295 395.607C857.069 393.848 856.398 391.842 856.283 389.592H861.476C861.678 391.597 862.587 393.256 864.202 394.569C865.832 395.867 867.78 396.516 870.045 396.516C871.862 396.516 873.478 396.091 874.892 395.24C876.32 394.389 877.438 393.22 878.246 391.734C879.068 390.234 879.479 388.539 879.479 386.649C879.479 384.716 879.054 382.992 878.202 381.478C877.366 379.948 876.212 378.744 874.74 377.864C873.269 376.984 871.588 376.537 869.698 376.522C868.342 376.508 866.95 376.717 865.522 377.15C864.094 377.568 862.918 378.109 861.995 378.773L856.975 378.167L859.658 356.355H882.682V361.116H864.159L862.601 374.185H862.861C863.769 373.464 864.909 372.865 866.28 372.389C867.65 371.913 869.078 371.675 870.564 371.675C873.276 371.675 875.692 372.324 877.813 373.623C879.948 374.907 881.621 376.667 882.833 378.903C884.059 381.139 884.672 383.692 884.672 386.563C884.672 389.39 884.038 391.915 882.768 394.136C881.513 396.343 879.782 398.089 877.575 399.373C875.368 400.642 872.858 401.277 870.045 401.277Z" fill="#2A2828"/>
<path d="M898.851 377.474L891.71 404.003H889.373L896.514 377.474H898.851ZM909.624 378.513V400.671H906.941V381.326H906.811L901.402 384.918V382.192L906.941 378.513H909.624ZM923.224 400.974C921.594 400.974 920.206 400.53 919.059 399.643C917.912 398.749 917.035 397.454 916.43 395.759C915.824 394.057 915.521 392.001 915.521 389.592C915.521 387.197 915.824 385.152 916.43 383.457C917.043 381.755 917.923 380.457 919.069 379.562C920.224 378.661 921.608 378.21 923.224 378.21C924.84 378.21 926.221 378.661 927.368 379.562C928.522 380.457 929.402 381.755 930.008 383.457C930.621 385.152 930.927 387.197 930.927 389.592C930.927 392.001 930.624 394.057 930.019 395.759C929.413 397.454 928.536 398.749 927.39 399.643C926.243 400.53 924.854 400.974 923.224 400.974ZM923.224 398.594C924.84 398.594 926.095 397.815 926.989 396.257C927.884 394.699 928.331 392.477 928.331 389.592C928.331 387.673 928.125 386.04 927.714 384.691C927.31 383.342 926.726 382.314 925.961 381.607C925.204 380.9 924.292 380.547 923.224 380.547C921.623 380.547 920.371 381.337 919.47 382.916C918.568 384.489 918.117 386.714 918.117 389.592C918.117 391.511 918.319 393.141 918.723 394.482C919.127 395.824 919.708 396.844 920.465 397.544C921.23 398.244 922.149 398.594 923.224 398.594Z" fill="#2A2828" fill-opacity="0.5"/>
</svg>
