<svg width="240" height="72" viewBox="0 0 240 72" fill="none" xmlns="http://www.w3.org/2000/svg">
<path d="M114.301 28.893C114.611 29.2189 115.084 29.3818 115.721 29.3818C116.357 29.3818 116.823 29.2189 117.117 28.893C117.412 28.5515 117.56 28.1325 117.56 27.6359C117.56 27.1082 117.412 26.6815 117.117 26.3556C116.823 26.0297 116.357 25.8667 115.721 25.8667C115.084 25.8667 114.611 26.0297 114.301 26.3556C114.006 26.6815 113.858 27.1082 113.858 27.6359C113.858 28.1325 114.006 28.5515 114.301 28.893Z" fill="#131313" fill-opacity="0.32"/>
<path d="M99.5229 30.8949L103.48 43.5354H108.672L112.094 30.8949H108.974L106.399 40.8816H105.85L102.852 30.8949H99.5229Z" fill="#131313" fill-opacity="0.32"/>
<path d="M124.92 43.9311C123.182 43.9311 121.817 43.5664 120.823 42.837C119.846 42.0921 119.333 41.0678 119.287 39.7642H122.197C122.243 40.1987 122.484 40.5945 122.918 40.9514C123.353 41.3084 124.036 41.4868 124.967 41.4868C125.743 41.4868 126.356 41.3472 126.806 41.0678C127.272 40.7885 127.504 40.4082 127.504 39.9271C127.504 39.5081 127.326 39.1745 126.969 38.9262C126.627 38.6778 126.038 38.5149 125.2 38.4373L124.082 38.3209C122.67 38.1657 121.584 37.7622 120.823 37.1104C120.063 36.4586 119.683 35.5895 119.683 34.5032C119.683 33.6341 119.9 32.9047 120.334 32.315C120.769 31.7252 121.366 31.2829 122.127 30.9881C122.903 30.6777 123.787 30.5225 124.781 30.5225C126.333 30.5225 127.59 30.8639 128.552 31.5467C129.514 32.2296 130.018 33.2306 130.065 34.5497H127.155C127.124 34.1152 126.907 33.7427 126.503 33.4323C126.1 33.122 125.518 32.9668 124.757 32.9668C124.075 32.9668 123.547 33.0987 123.174 33.3625C122.802 33.6263 122.616 33.9678 122.616 34.3868C122.616 34.7903 122.763 35.1007 123.058 35.3179C123.368 35.5352 123.865 35.6826 124.548 35.7602L125.665 35.8766C127.155 36.0318 128.319 36.4431 129.157 37.1104C130.011 37.7777 130.437 38.6778 130.437 39.8108C130.437 40.6488 130.205 41.3782 129.739 41.999C129.289 42.6042 128.653 43.0776 127.83 43.419C127.008 43.7604 126.038 43.9311 124.92 43.9311Z" fill="#131313" fill-opacity="0.32"/>
<path d="M132.319 28.893C132.629 29.2189 133.103 29.3818 133.739 29.3818C134.375 29.3818 134.841 29.2189 135.136 28.893C135.431 28.5515 135.578 28.1325 135.578 27.6359C135.578 27.1082 135.431 26.6815 135.136 26.3556C134.841 26.0297 134.375 25.8667 133.739 25.8667C133.103 25.8667 132.629 26.0297 132.319 26.3556C132.024 26.6815 131.877 27.1082 131.877 27.6359C131.877 28.1325 132.024 28.5515 132.319 28.893Z" fill="#131313" fill-opacity="0.32"/>
<path fill-rule="evenodd" clip-rule="evenodd" d="M144.429 43.9777C143.311 43.9777 142.326 43.7992 141.472 43.4423C140.619 43.0853 139.897 42.6042 139.307 41.999C138.718 41.3782 138.267 40.6798 137.957 39.9039C137.662 39.1279 137.515 38.3209 137.515 37.4829V36.994C137.515 36.1249 137.67 35.3024 137.98 34.5264C138.306 33.735 138.764 33.0366 139.354 32.4313C139.959 31.8106 140.688 31.3295 141.542 30.9881C142.396 30.6311 143.358 30.4526 144.429 30.4526C145.499 30.4526 146.462 30.6311 147.315 30.9881C148.169 31.3295 148.89 31.8106 149.48 32.4313C150.085 33.0366 150.543 33.735 150.854 34.5264C151.164 35.3024 151.319 36.1249 151.319 36.994V37.4829C151.319 38.3209 151.164 39.1279 150.854 39.9039C150.559 40.6798 150.116 41.3782 149.527 41.999C148.937 42.6042 148.215 43.0853 147.362 43.4423C146.508 43.7992 145.53 43.9777 144.429 43.9777ZM144.429 41.2075C145.22 41.2075 145.887 41.0368 146.431 40.6953C146.974 40.3384 147.385 39.8651 147.664 39.2753C147.944 38.6701 148.083 37.9872 148.083 37.2268C148.083 36.4508 147.936 35.768 147.641 35.1783C147.362 34.573 146.943 34.0997 146.384 33.7582C145.841 33.4013 145.189 33.2228 144.429 33.2228C143.668 33.2228 143.009 33.4013 142.45 33.7582C141.907 34.0997 141.488 34.573 141.193 35.1783C140.898 35.768 140.751 36.4508 140.751 37.2268C140.751 37.9872 140.89 38.6701 141.17 39.2753C141.464 39.8651 141.883 40.3384 142.427 40.6953C142.97 41.0368 143.637 41.2075 144.429 41.2075Z" fill="#131313" fill-opacity="0.32"/>
<path d="M155.829 33.1064C155.717 33.3845 155.624 33.6857 155.549 34.0099V30.8949H152.989V43.5354H156.224V36.1094C156.224 35.2869 156.465 34.6351 156.946 34.154C157.443 33.6574 158.087 33.4091 158.878 33.4091C159.654 33.4091 160.259 33.6496 160.694 34.1307C161.144 34.6118 161.369 35.2403 161.369 36.0163V43.5354H164.605V36.2956C164.605 34.3713 164.217 32.928 163.441 31.9658C162.665 30.9881 161.524 30.4992 160.019 30.4992H159.879C158.87 30.4992 158.025 30.7165 157.342 31.151C156.674 31.5855 156.17 32.2374 155.829 33.1064Z" fill="#131313" fill-opacity="0.32"/>
<path d="M114.533 33.3159V43.5354H117.769V30.8949H112.764V33.3159H114.533Z" fill="#131313" fill-opacity="0.32"/>
<path d="M132.552 33.3159V43.5354H135.788V30.8949H130.783V33.3159H132.552Z" fill="#131313" fill-opacity="0.32"/>
<path d="M85.5283 25.8667C91.1246 25.8667 95.6619 30.4033 95.6621 35.9995C95.6621 41.596 91.1248 46.1333 85.5283 46.1333C79.9321 46.1331 75.3955 41.5958 75.3955 35.9995C75.3957 30.4034 79.9322 25.8669 85.5283 25.8667ZM84.458 28.6597C80.8663 29.2053 78.1144 32.3063 78.1143 36.0503C78.1143 37.1428 78.3484 38.1812 78.7695 39.1167C79.1967 38.7193 79.797 38.4712 80.4619 38.4712C81.7586 38.4712 82.8096 39.4125 82.8096 40.5728C82.8094 41.3516 82.3357 42.0314 81.6318 42.394C82.7797 43.1118 84.1363 43.5268 85.5898 43.5269C89.7189 43.5269 93.0664 40.1794 93.0664 36.0503C93.0664 35.6761 93.0394 35.3082 92.9863 34.9487C92.0415 36.0536 90.7099 36.7417 89.2354 36.7417C86.369 36.7415 84.0449 34.1407 84.0449 30.9331C84.045 30.1263 84.1923 29.3579 84.458 28.6597Z" fill="#131313" fill-opacity="0.32"/>
</svg>
