<svg width="240" height="72" viewBox="0 0 240 72" fill="none" xmlns="http://www.w3.org/2000/svg">
<path d="M153.844 25.8611V45.8823H156.774V25.8611H153.844Z" fill="#131313" fill-opacity="0.32"/>
<path fill-rule="evenodd" clip-rule="evenodd" d="M127.348 46.2055C126.191 46.2055 125.225 45.9362 124.45 45.3975C124.365 45.3386 124.282 45.2773 124.202 45.2137V45.8823H121.617V26.1843H124.568V34.6229C125.292 34.1573 126.169 33.9245 127.197 33.9245C128.31 33.9245 129.28 34.1902 130.106 34.7217C130.931 35.2531 131.571 35.9821 132.023 36.9086C132.483 37.8278 132.713 38.88 132.713 40.065C132.713 41.2285 132.486 42.2734 132.034 43.1999C131.589 44.1263 130.964 44.8589 130.159 45.3975C129.355 45.9362 128.418 46.2055 127.348 46.2055ZM124.461 38.2121C124.288 38.7435 124.202 39.3612 124.202 40.065C124.202 40.7688 124.288 41.3864 124.461 41.9179C124.633 42.4494 124.913 42.8623 125.301 43.1568C125.696 43.4512 126.22 43.5985 126.874 43.5985C127.506 43.5985 128.023 43.4405 128.425 43.1245C128.827 42.8084 129.125 42.3847 129.319 41.8533C129.513 41.3146 129.61 40.7185 129.61 40.065C129.61 39.4186 129.509 38.8297 129.308 38.2983C129.107 37.7596 128.795 37.3323 128.371 37.0163C127.955 36.6931 127.419 36.5315 126.766 36.5315C126.155 36.5315 125.66 36.6787 125.279 36.9732C124.906 37.2677 124.633 37.6806 124.461 38.2121Z" fill="#131313" fill-opacity="0.32"/>
<path d="M116.984 39.0093V45.8823H119.914V38.2336C119.914 36.9624 119.573 35.9354 118.891 35.1526C118.216 34.3626 117.214 33.9676 115.885 33.9676C115.109 33.9676 114.402 34.1399 113.763 34.4847C113.178 34.7972 112.7 35.2268 112.33 35.7733C112.055 35.2773 111.674 34.8693 111.188 34.5493C110.606 34.1615 109.859 33.9676 108.947 33.9676C108.15 33.9676 107.428 34.1435 106.782 34.4954C106.294 34.7644 105.881 35.1067 105.543 35.5224V34.2477H102.958V45.8823H105.909V38.8369C105.909 38.169 106.093 37.6267 106.459 37.2102C106.832 36.7865 107.324 36.5746 107.935 36.5746C108.574 36.5746 109.073 36.7901 109.432 37.221C109.798 37.6447 109.982 38.2408 109.982 39.0093V45.8823H112.912V38.8369C112.912 38.3916 112.994 38.0002 113.16 37.6627C113.332 37.3179 113.569 37.0522 113.871 36.8655C114.172 36.6716 114.528 36.5746 114.937 36.5746C115.576 36.5746 116.075 36.7901 116.434 37.221C116.801 37.6447 116.984 38.2408 116.984 39.0093Z" fill="#131313" fill-opacity="0.32"/>
<path d="M92.4597 45.7638C93.0343 46.0726 93.7776 46.227 94.6897 46.227C95.8316 46.227 96.776 45.9792 97.5229 45.4837C97.8774 45.2508 98.1898 44.9837 98.4602 44.6826V45.8823H101.046V34.2477H98.0939V40.1512C98.0939 40.8694 98.0113 41.4511 97.8461 41.8964C97.6881 42.3344 97.4834 42.6684 97.2321 42.8982C96.9807 43.1209 96.7114 43.2717 96.4241 43.3507C96.1368 43.4297 95.8675 43.4692 95.6161 43.4692C94.9913 43.4692 94.5065 43.3291 94.1618 43.049C93.8243 42.7689 93.5801 42.4206 93.4293 42.0041C93.2784 41.5875 93.1887 41.1746 93.1599 40.7652C93.1312 40.3487 93.1169 40.0075 93.1169 39.7418V34.2477H90.1436V40.776C90.1436 40.9699 90.1579 41.2787 90.1866 41.7024C90.2154 42.1262 90.298 42.5966 90.4344 43.1137C90.5709 43.6236 90.7971 44.1156 91.1131 44.5896C91.4363 45.0636 91.8852 45.455 92.4597 45.7638Z" fill="#131313" fill-opacity="0.32"/>
<path d="M134.006 34.2477V45.8823H136.958V39.9357C136.958 39.4904 137.019 39.0919 137.141 38.7399C137.263 38.3808 137.442 38.072 137.679 37.8135C137.916 37.5477 138.207 37.3359 138.552 37.1779C138.897 37.0127 139.281 36.9157 139.705 36.887C140.136 36.8511 140.513 36.8834 140.836 36.984V34.2477C140.484 34.2046 140.132 34.1974 139.78 34.2261C139.428 34.2477 139.087 34.3087 138.757 34.4093C138.426 34.5026 138.121 34.6355 137.841 34.8079C137.475 35.0233 137.166 35.2962 136.914 35.6266C136.795 35.783 136.688 35.9474 136.591 36.1199V34.2477H134.006Z" fill="#131313" fill-opacity="0.32"/>
<path fill-rule="evenodd" clip-rule="evenodd" d="M147.005 46.2055C145.813 46.2055 144.761 45.9505 143.849 45.4406C142.944 44.9235 142.233 44.2161 141.716 43.3184C141.206 42.4134 140.951 41.3793 140.951 40.2158C140.951 38.9446 141.202 37.8386 141.705 36.8978C142.208 35.957 142.901 35.228 143.784 34.7109C144.668 34.1866 145.684 33.9245 146.833 33.9245C148.054 33.9245 149.092 34.2118 149.946 34.7863C150.801 35.3609 151.433 36.1688 151.842 37.2102C152.252 38.2516 152.395 39.4761 152.273 40.8837H144.104C144.195 41.582 144.412 42.1494 144.754 42.5858C145.228 43.1747 145.921 43.4692 146.833 43.4692C147.407 43.4692 147.899 43.3435 148.309 43.0921C148.718 42.8408 149.031 42.4781 149.246 42.0041L152.176 42.8444C151.738 43.9073 151.045 44.7332 150.097 45.3221C149.156 45.911 148.126 46.2055 147.005 46.2055ZM148.804 37.2533C149.055 37.5935 149.223 38.0783 149.308 38.7076H144.181C144.295 38.1703 144.486 37.7286 144.754 37.3826C145.228 36.7721 145.964 36.4669 146.962 36.4669C147.817 36.4669 148.431 36.729 148.804 37.2533Z" fill="#131313" fill-opacity="0.32"/>
<path d="M159.142 45.8823V25.8611H162.072V45.8823H159.142Z" fill="#131313" fill-opacity="0.32"/>
<path fill-rule="evenodd" clip-rule="evenodd" d="M165.334 45.7315C165.916 46.0475 166.623 46.2055 167.456 46.2055C168.462 46.2055 169.291 46.0331 169.945 45.6884C170.466 45.4109 170.958 44.9995 171.421 44.4541V45.8823H173.985V38.7723C173.985 38.2408 173.963 37.7596 173.92 37.3287C173.877 36.8978 173.74 36.4669 173.511 36.036C173.101 35.2603 172.498 34.7145 171.701 34.3985C170.904 34.0825 169.991 33.9245 168.964 33.9245C167.564 33.9245 166.458 34.2261 165.646 34.8294C164.835 35.4327 164.282 36.2155 163.987 37.1779L166.638 38.0182C166.824 37.4867 167.151 37.1168 167.618 36.9086C168.085 36.7003 168.534 36.5961 168.964 36.5961C169.74 36.5961 170.293 36.7577 170.623 37.0809C170.883 37.3347 171.04 37.7014 171.096 38.1811C170.6 38.2562 170.13 38.3276 169.686 38.3952C168.932 38.5029 168.257 38.6178 167.661 38.7399C167.065 38.862 166.551 39.0021 166.12 39.1601C165.496 39.3899 164.996 39.6772 164.623 40.0219C164.257 40.3595 163.991 40.7508 163.826 41.1961C163.661 41.6414 163.578 42.1334 163.578 42.672C163.578 43.3184 163.725 43.9109 164.02 44.4495C164.321 44.981 164.759 45.4083 165.334 45.7315ZM169.438 43.62C169.072 43.8067 168.62 43.9001 168.081 43.9001C167.744 43.9001 167.453 43.8498 167.208 43.7493C166.964 43.6487 166.774 43.5051 166.638 43.3184C166.508 43.1245 166.444 42.8946 166.444 42.6289C166.444 42.435 166.483 42.259 166.562 42.101C166.648 41.943 166.778 41.7994 166.95 41.6701C167.129 41.5337 167.363 41.408 167.65 41.2931C167.902 41.1997 168.192 41.1135 168.523 41.0345C168.853 40.9555 169.288 40.8694 169.826 40.776C170.172 40.7114 170.587 40.6379 171.069 40.5555C171.062 40.7603 171.05 40.9918 171.033 41.25C171.011 41.6665 170.925 42.0328 170.774 42.3488C170.695 42.514 170.544 42.7187 170.322 42.9629C170.106 43.207 169.812 43.4261 169.438 43.62Z" fill="#131313" fill-opacity="0.32"/>
<path fill-rule="evenodd" clip-rule="evenodd" d="M73.9725 34.3316H66.0154V37.7968C66.0154 42.9711 70.21 47.1657 75.3843 47.1657C80.5586 47.1657 84.7532 42.9711 84.7532 37.7968V34.3316H76.5394L76.5394 28.8129C76.5394 26.6156 74.7581 24.8344 72.5608 24.8344C70.3635 24.8344 68.5822 26.6156 68.5822 28.8129L71.149 28.8129C71.149 28.0332 71.7811 27.4012 72.5608 27.4012C73.3405 27.4012 73.9725 28.0332 73.9725 28.8129L73.9725 34.3316ZM73.9725 36.8984L73.9725 41.7754L76.5394 41.7754L76.5394 36.8984H82.1864V37.7968C82.1864 41.5535 79.141 44.5989 75.3843 44.5989C71.6276 44.5989 68.5822 41.5535 68.5822 37.7968V36.8984H73.9725Z" fill="#131313" fill-opacity="0.32"/>
</svg>
